g mesh 4
v 4.6500106 5.8580165 -8.645177
v -4.65 5.8580165 -0.38806152
v 4.6500106 5.8580165 -0.38806152
v -4.65 5.8580117 -8.645177
v -4.65 3.2314563 -1.7337081
v -4.65 5.8580165 -2.629361
v -4.65 3.2314563 -2.4517148
v -4.65 5.8580165 -1.8343911
v -4.65 5.8580165 -0.38806152
v -4.65 2.184137 -0.38806137
v -4.65 2.184137 -1.6470155
v -4.65 5.8580165 -3.3107004
v -4.65 3.1344812 -3.3702872
v -4.65 5.8580165 -5.0380626
v -4.65 2.184137 -3.3561785
v -4.65 2.184137 -5.038062
v 4.6500106 5.8580165 -0.38806152
v 4.6500106 2.184137 -0.38806152
v 4.6500106 2.184137 -1.6470157
v 4.6500106 3.1975622 -1.6984482
v 4.6500106 5.8580165 -1.7098635
v 4.6500106 3.1975622 -2.5115893
v 4.6500106 5.8580165 -2.3671288
v 4.6500106 3.1975622 -3.3912237
v 4.6500106 5.8580165 -3.3638256
v 4.6500106 5.8580165 -5.0380626
v 4.6500106 2.184137 -5.0380626
v 4.6500106 2.184137 -3.3561788
v 4.650011 2.184137 -8.645177
v 4.6500106 5.8580165 -5.0380626
v 4.6500106 2.184137 -5.0380626
v 4.6500106 5.8580165 -8.645177
v -4.65 2.184137 -8.645177
v -4.65 5.8580165 -5.0380626
v -4.65 5.8580165 -8.645177
v -4.65 2.184137 -5.038062
v -4.65 2.184137 -8.645178
v 4.6500106 5.8580165 -8.645177
v 4.650011 2.184137 -8.645177
v -4.65 5.8580117 -8.645177
v 1.7170935 -0.007872161 -8.645177
v 4.650011 2.184137 -8.645177
v 4.6500106 -0.007872161 -8.645177
v 1.7170935 2.184137 -8.645177
v -1.7170794 -0.007872161 -8.645177
v 1.7170935 2.184137 -8.645177
v 1.7170935 -0.007872161 -8.645177
v -1.7170794 2.184137 -8.645177
v -4.6499968 -0.007872161 -8.645178
v -1.7170794 2.184137 -8.645177
v -1.7170794 -0.007872161 -8.645177
v -4.65 2.184137 -8.645178
v -4.65 -0.007872161 -6.4405484
v -4.65 2.184137 -8.645177
v -4.65 -0.007872161 -8.645177
v -4.65 2.184137 -6.4405484
v -4.65 -0.007872161 -3.3561785
v -4.65 2.184137 -6.4405484
v -4.65 -0.007872161 -6.4405484
v -4.65 2.184137 -3.3561785
v -4.65 -0.007872161 -0.38806137
v -4.65 2.184137 -1.6470155
v -4.65 -0.007872161 -1.6470153
v -4.65 2.184137 -0.38806137
v 4.6500106 -0.007872161 -6.4405484
v 4.650011 2.184137 -8.645177
v 4.6500106 2.184137 -6.4405484
v 4.6500106 -0.007872161 -8.645177
v 4.6500106 -0.007872161 -3.3561788
v 4.6500106 2.184137 -6.4405484
v 4.6500106 2.184137 -3.3561788
v 4.6500106 -0.007872161 -6.4405484
v 4.6500106 -0.007872161 -0.38806152
v 4.6500106 2.184137 -1.6470157
v 4.6500106 2.184137 -0.38806152
v 4.6500106 -0.007872161 -1.6470157
v 2.5605981 -0.007872161 -0.38806152
v -4.649998 -0.007872161 -6.617969
v 2.5605981 -0.007872161 -6.617969
v -4.649998 -0.007872161 -0.38806152
v 4.6500106 -0.007872161 -0.38806152
v 2.5605981 -0.007872161 -6.617969
v 4.6500106 -0.007872161 -6.617969
v 2.5605981 -0.007872161 -0.38806152
v 2.5605981 -0.007872161 -6.617969
v -4.6499968 -0.007872161 -8.645178
v 2.5605981 -0.007872161 -8.645177
v -4.649998 -0.007872161 -6.617969
v 4.6500106 -0.007872161 -6.617969
v 2.5605981 -0.007872161 -8.645177
v 4.6500106 -0.007872161 -8.645177
v 2.5605981 -0.007872161 -6.617969
v -4.5387816 2.9533088 -1.5754592
v -4.5387816 0.4414694 -1.8210444
v -4.5387816 0.4414694 -1.5754592
v -4.5387816 2.9056916 -1.8210444
v -4.5387816 3.2076728 -1.6873955
v -4.5387816 3.2076728 -1.6873955
v -4.5387816 3.0615766 -1.895799
v -4.5387816 3.378426 -1.935037
v -4.5387816 3.2076728 -1.6873955
v -4.5387816 3.1578326 -2.0295544
v -4.5387816 3.378426 -3.1710098
v -4.5387816 3.1578326 -3.0764925
v -4.5387816 3.0615766 -3.2102478
v -4.5387816 3.2076728 -3.4186513
v -4.5387816 2.9056916 -3.285002
v -4.5387816 2.9533088 -3.5305874
v -4.5387816 0.4414694 -3.285002
v -4.5387816 0.4414694 -3.5305872
v -4.5387816 3.2076728 -3.4186513
v -4.5387816 2.9533088 -1.5754592
v -4.6499877 0.4414694 -1.5754592
v -4.6499877 2.9533088 -1.5754592
v -4.5387816 0.4414694 -1.5754592
v -4.5387816 3.2076728 -1.6873955
v -4.5387816 3.378426 -1.935037
v -4.6499877 3.378426 -3.1710095
v -4.5387816 3.378426 -3.1710098
v -4.5387816 3.378426 -1.935037
v -4.6499877 3.378426 -1.9350373
v -4.6499877 3.2076728 -1.6873955
v -4.6499877 3.2076728 -1.6873955
v -4.5387816 3.2076728 -1.6873955
v -4.6499877 3.2076728 -3.4186513
v -4.5387816 3.378426 -3.1710098
v -4.6499877 3.2076728 -3.4186513
v -4.5387816 3.2076728 -3.4186513
v -4.6499877 2.9533088 -1.5754592
v -4.6499877 3.2076728 -1.6873955
v -4.5387816 3.2076728 -1.6873955
v -4.5387816 2.9533088 -3.5305874
v -4.6499877 0.4414694 -3.5305872
v -4.5387816 0.4414694 -3.5305872
v -4.6499877 2.9533088 -3.5305874
v -4.5387816 3.2076728 -3.4186513
v -4.6499877 2.9533088 -3.5305874
v -4.6499877 3.2076728 -3.4186513
v -5.1512427 0.4453804 -1.5117998
v -4.5177174 0.4453804 -1.8425289
v -4.5177174 0.4453804 -1.5117998
v -5.1512427 0.4453804 -1.8425289
v -4.5177174 0.4453804 -1.8425289
v -4.5177174 -0.007874603 -1.8425289
v -4.5177293 -0.007935639 -1.4213352
v -4.5177293 0.08868301 -1.4213352
v -4.5177174 0.4453804 -1.8425289
v -4.5177174 0.4453804 -1.5117998
v -4.6499877 0.08880264 -1.42136
v -4.5177174 0.4453804 -1.5117998
v -4.5177293 0.08868301 -1.4213352
v -4.6499877 0.4453804 -1.5117998
v -4.5177293 -0.007935639 -1.4213352
v -4.6499877 -0.007816009 -1.42136
v -4.5177293 0.08868301 -3.684711
v -4.5177293 -0.007935639 -3.684711
v -4.5177174 -0.007874603 -3.263518
v -4.5177174 0.4453804 -3.263518
v -4.5177174 0.4453804 -3.594247
v 4.538801 2.9533088 -1.5754592
v 4.538801 0.4414694 -1.8210444
v 4.538801 2.9056916 -1.8210444
v 4.538801 2.9533088 -1.5754592
v 4.538801 0.4414694 -1.5754592
v 4.538801 0.4414694 -1.8210444
v 4.538801 2.9533088 -1.5754592
v 4.6500077 0.4414694 -1.5754592
v 4.538801 0.4414694 -1.5754592
v 4.538801 2.9533088 -1.5754592
v 4.6500077 2.9533088 -1.5754592
v 4.6500077 0.4414694 -1.5754592
v 4.538801 3.378426 -1.935037
v 4.538801 3.0615766 -1.895799
v 4.538801 3.1578326 -2.0295544
v 4.538801 3.2076728 -1.6873955
v 4.538801 2.9056916 -1.8210444
v 4.538801 2.9533088 -1.5754592
v 4.538801 3.378426 -3.1710098
v 4.538801 3.1578326 -3.0764925
v 4.538801 3.0615766 -3.2102478
v 4.538801 3.2076728 -3.4186513
v 4.538801 2.9056916 -3.285002
v 4.538801 2.9533088 -3.5305874
v 4.538801 0.4414694 -3.285002
v 4.538801 0.4414694 -3.5305872
v 4.538801 3.378426 -1.935037
v 4.6500077 3.378426 -3.1710095
v 4.6500077 3.378426 -1.9350373
v 4.538801 3.378426 -3.1710098
v 4.6500077 3.2076728 -1.6873955
v 4.6086745 3.2076728 -3.4186513
v 4.6086745 3.2076728 -3.4186513
v 4.538801 3.2076728 -3.4186513
v 4.6086745 2.9533088 -3.5305874
v 4.6086745 3.2076728 -3.4186513
v 4.538801 2.9533088 -3.5305874
v 4.6086745 0.4414694 -3.5305872
v 4.538801 0.4414694 -3.5305872
v 4.6086745 0.4414694 -3.5305872
v 4.538801 3.2076728 -3.4186513
v 4.538801 2.9533088 -3.5305874
v 4.6500077 3.2076728 -1.6873955
v 4.538801 3.2076728 -1.6873955
v 4.538801 3.378426 -1.935037
v 4.6500077 2.9533088 -1.5754592
v 4.538801 3.2076728 -1.6873955
v 4.6500077 3.2076728 -1.6873955
v 4.538801 2.9533088 -1.5754592
v 5.1512623 0.4453804 -1.5117998
v 4.5177364 0.4453804 -1.8425289
v 5.1512623 0.4453804 -1.8425289
v 4.5177364 0.4453804 -1.5117998
v 4.5177364 0.4453804 -1.8425289
v 4.517749 0.08868301 -1.4213352
v 4.517749 -0.007935639 -1.4213352
v 4.5177364 -0.007874603 -1.8425289
v 4.5177364 0.4453804 -1.8425289
v 4.5177364 0.4453804 -1.5117998
v 4.6500077 0.08880264 -1.42136
v 4.5177364 0.4453804 -1.5117998
v 4.6500077 0.4453804 -1.5117998
v 4.517749 0.08868301 -1.4213352
v 4.517749 -0.007935639 -1.4213352
v 4.6500077 -0.007816009 -1.42136
v 4.5177364 -0.007874603 -3.263518
v 4.517749 -0.007935639 -3.684711
v 4.517749 0.08868301 -3.684711
v 4.5177364 0.4453804 -3.263518
v 4.5177364 0.4453804 -3.594247
v -5.1512427 0.4453804 -3.263518
v -4.5177174 0.4453804 -3.594247
v -4.5177174 0.4453804 -3.263518
v -5.1512427 0.4453804 -3.594247
v 5.1512623 0.4453804 -3.263518
v 4.5177364 0.4453804 -3.594247
v 5.1512623 0.4453804 -3.594247
v 4.5177364 0.4453804 -3.263518
v -4.6500006 4.9558544 -8.270634
v -1.0035596 5.0901856 -8.0445385
v -4.6500025 5.0901904 -8.044457
v -1.0036633 4.9558105 -8.270666
v -4.6500025 5.0901904 -8.044457
v -1.0038079 4.964179 -7.8244243
v -4.6500025 4.964102 -7.8243833
v -1.0035596 5.0901856 -8.0445385
v -4.6500025 4.964102 -7.8243833
v -1.0043228 4.7118554 -7.8242435
v -4.6500006 4.711696 -7.824337
v -1.0038079 4.964179 -7.8244243
v -4.6500006 4.711696 -7.824337
v -1.0047449 4.58552 -8.04431
v -4.6499968 4.58552 -8.044421
v -1.0043228 4.7118554 -7.8242435
v -4.6499968 4.58552 -8.044421
v -1.0045955 4.7198315 -8.27062
v -4.6500006 4.719866 -8.27063
v -1.0047449 4.58552 -8.04431
v -0.6528729 5.0089355 -8.270679
v -0.79266113 5.095371 -8.045028
v -0.77610594 4.960891 -8.2715645
v -0.75710326 5.107561 -8.045708
v -1.0035596 5.0901856 -8.0445385
v -1.0036633 4.9558105 -8.270666
v -0.75710326 5.107561 -8.045708
v -0.77730924 4.970293 -7.824269
v -0.79266113 5.095371 -8.045028
v -0.6636499 5.019148 -7.8265347
v -1.0038079 4.964179 -7.8244243
v -1.0035596 5.0901856 -8.0445385
v -0.6636499 5.019148 -7.8265347
v -0.7507385 4.7203465 -7.8237543
v -0.77730924 4.970293 -7.824269
v -0.5087973 4.8633666 -7.823979
v -1.0043228 4.7118554 -7.8242435
v -1.0038079 4.964179 -7.8244243
v -0.6341095 5.1312428 -7.822864
v -0.41117004 5.1003513 -7.8245664
v -0.6098224 5.293921 -7.824677
v -0.38959593 5.2947607 -7.824193
v -0.5087973 4.8633666 -7.823979
v -0.73827267 4.593833 -8.043926
v -0.7507385 4.7203465 -7.8237543
v -0.38906464 4.7492065 -8.043665
v -1.0047449 4.58552 -8.04431
v -1.0043228 4.7118554 -7.8242435
v -0.41117004 5.1003513 -7.8245664
v -0.25876465 5.102229 -8.04381
v -0.38959593 5.2947607 -7.824193
v -0.2631784 5.295078 -8.044264
v -0.38906464 4.7492065 -8.043665
v -0.7527875 4.7261643 -8.269729
v -0.73827267 4.593833 -8.043926
v -0.51322204 4.8674073 -8.269039
v -1.0045955 4.7198315 -8.27062
v -1.0047449 4.58552 -8.04431
v -0.25876465 5.102229 -8.04381
v -0.4177719 5.1023293 -8.26918
v -0.39741698 5.2950096 -8.270414
v -0.2631784 5.295078 -8.044264
v -0.73647153 5.1444016 -8.045186
v -0.6008554 5.293843 -8.271035
v -0.7353988 5.293491 -8.044801
v -0.6266058 5.1304345 -8.272371
v -0.75710326 5.107561 -8.045708
v -0.6528729 5.0089355 -8.270679
v -0.6341095 5.1312428 -7.822864
v -0.7353988 5.293491 -8.044801
v -0.6098224 5.293921 -7.824677
v -0.73647153 5.1444016 -8.045186
v -0.6636499 5.019148 -7.8265347
v -0.75710326 5.107561 -8.045708
v -0.613385 5.9056764 -8.286833
v -0.7353988 5.293491 -8.044801
v -0.6008554 5.293843 -8.271035
v -0.73816586 5.892493 -8.044609
v -0.73816586 5.892493 -8.044609
v -0.6098224 5.293921 -7.824677
v -0.7353988 5.293491 -8.044801
v -0.6108655 5.8936157 -7.821722
v -0.6108655 5.8936157 -7.821722
v -0.38959593 5.2947607 -7.824193
v -0.6098224 5.293921 -7.824677
v -0.38781676 5.893596 -7.821641
v -0.38781676 5.893596 -7.821641
v -0.2631784 5.295078 -8.044264
v -0.38959593 5.2947607 -7.824193
v -0.2601358 5.8934593 -8.044251
v -0.2601358 5.8934593 -8.044251
v -0.39741698 5.2950096 -8.270414
v -0.2631784 5.295078 -8.044264
v -0.39497527 5.8909545 -8.2708435
v -2.973217 0.976626 -6.061803
v -2.973217 -0.0031298827 -5.387562
v -2.973217 0.976626 -5.395731
v -2.973217 -0.0031298827 -6.053633
v -4.3676763 -0.0031298827 -5.387562
v -4.1725917 0.82303464 -5.3946033
v -4.1725917 0.18374267 -5.389896
v -4.3676763 0.976626 -5.395731
v -3.1530108 0.18374267 -5.389896
v -2.973217 -0.0031298827 -5.387562
v -3.1530108 0.82303464 -5.3946033
v -2.973217 0.976626 -5.395731
v -4.3676763 0.976626 -6.061803
v -4.3676763 -0.0031298827 -5.387562
v -4.3676763 -0.0031298827 -6.053633
v -4.3676763 0.976626 -5.395731
v -2.973217 0.976626 -6.061803
v -4.3676763 0.976626 -5.395731
v -4.3676763 0.976626 -6.061803
v -2.973217 0.976626 -5.395731
v -4.1725917 0.82303464 -5.3946033
v -4.1725917 0.42070556 -5.8794103
v -4.1725917 0.18374267 -5.389896
v -4.1725917 0.18374267 -5.389896
v -3.1530108 0.42070556 -5.8794103
v -3.1530108 0.18374267 -5.389896
v -4.1725917 0.42070556 -5.8794103
v -3.1530108 0.18374267 -5.389896
v -3.1530108 0.42070556 -5.8794103
v -3.1530108 0.82303464 -5.3946033
v -3.1530108 0.82303464 -5.3946033
v -4.1725917 0.42070556 -5.8794103
v -4.1725917 0.82303464 -5.3946033
v -3.1530108 0.42070556 -5.8794103
v 1.0486858 5.799919 -5.3028636
v 1.0090165 4.8868847 -5.3391533
v 1.012398 5.799919 -5.3391533
v 1.0486858 4.8868847 -5.2994814
v 1.012398 5.799919 -5.3391533
v 1.0486858 4.8868847 -5.378825
v 1.0486858 5.799919 -5.3754425
v 1.0090165 4.8868847 -5.3391533
v 1.0486858 5.799919 -5.3754425
v 1.0883586 4.8868847 -5.3391533
v 1.084977 5.799919 -5.3391533
v 1.0486858 4.8868847 -5.378825
v 1.0486858 4.8868847 -5.2994814
v 1.084977 5.799919 -5.3391533
v 1.0883586 4.8868847 -5.3391533
v 1.0486858 5.799919 -5.3028636
v 1.0486858 5.799919 -5.3028636
v 0.9072588 5.8658814 -5.3391533
v 1.0486858 5.8658814 -5.197725
v 1.012398 5.799919 -5.3391533
v 1.012398 5.799919 -5.3391533
v 1.0486858 5.8658814 -5.480582
v 0.9072588 5.8658814 -5.3391533
v 1.0486858 5.799919 -5.3754425
v 1.0486858 5.799919 -5.3754425
v 1.1901165 5.8658814 -5.3391533
v 1.0486858 5.8658814 -5.480582
v 1.084977 5.799919 -5.3391533
v 1.0486858 5.8658814 -5.197725
v 1.084977 5.799919 -5.3391533
v 1.0486858 5.799919 -5.3028636
v 1.1901165 5.8658814 -5.3391533
v 1.0486858 4.740581 -5.263852
v 1.0883586 4.8868847 -5.3391533
v 1.1360917 4.7821336 -5.3303657
v 1.0486858 4.8868847 -5.2994814
v 1.0486858 4.8868847 -5.378825
v 1.1360917 4.7821336 -5.3303657
v 1.0883586 4.8868847 -5.3391533
v 1.0486858 4.7821336 -5.382208
v 1.0090165 4.8868847 -5.3391533
v 1.0486858 4.7821336 -5.382208
v 1.0486858 4.8868847 -5.378825
v 0.950087 4.7821336 -5.3263946
v 1.0486858 4.8868847 -5.2994814
v 0.950087 4.7821336 -5.3263946
v 1.0090165 4.8868847 -5.3391533
v 1.0486858 4.8868847 -5.2994814
v 1.0486858 4.740581 -5.263852
v -3.0587761 1.5969238 -6.036039
v -4.273956 1.5969238 -5.1912465
v -4.273956 1.5969238 -6.036039
v -3.0587761 1.5969238 -5.1912465
v -3.0587761 1.5969238 -5.1912465
v -4.273956 1.2695825 -5.1912465
v -4.273956 1.5969238 -5.1912465
v -3.0587761 1.2695825 -5.1912465
v -4.273956 1.2695825 -5.1912465
v -4.273956 1.5969238 -6.036039
v -4.273956 1.5969238 -5.1912465
v -4.273956 1.2695825 -6.036039
v -4.273956 0.94224364 -5.4503517
v -4.273956 0.94224364 -6.036039
v -3.0587761 1.5969238 -6.036039
v -3.0587761 1.2695825 -5.1912465
v -3.0587761 1.5969238 -5.1912465
v -3.0587761 1.2695825 -6.036039
v -3.0587761 0.94224364 -5.4503517
v -3.0587761 0.94224364 -6.036039
v -3.0587761 1.2695825 -5.1912465
v -4.273956 0.94224364 -5.4503517
v -4.273956 1.2695825 -5.1912465
v -3.0587761 0.94224364 -5.4503517
v -0.5321459 -0.0055322265 -4.6541734
v -0.8246167 0.44606256 -4.630177
v -0.63451535 0.44606256 -4.8202777
v -0.6509906 -0.0055322265 -4.535326
v -0.9907123 0.44606256 -4.7962737
v -0.6509906 -0.0055322265 -4.535326
v -0.73703915 -0.0055322265 -4.6213737
v -0.8246167 0.44606256 -4.630177
v -0.6181927 -0.0055322265 -4.7402205
v -0.9907123 0.44606256 -4.7962737
v -0.73703915 -0.0055322265 -4.6213737
v -0.80061245 0.44606256 -4.9863744
v -1.7346963 -0.0055322265 -4.6541734
v -1.4422256 0.60122615 -4.630177
v -1.615851 -0.0055322265 -4.535326
v -1.6323271 0.60122615 -4.8202777
v -1.2761298 0.60122615 -4.7962737
v -1.615851 -0.0055322265 -4.535326
v -1.4422256 0.60122615 -4.630177
v -1.529805 -0.0055322265 -4.6213737
v -1.648649 -0.0055322265 -4.7402205
v -1.2761298 0.60122615 -4.7962737
v -1.4662293 0.60122615 -4.9863744
v -1.529805 -0.0055322265 -4.6213737
v -0.64925355 -0.0055322265 -7.8068724
v -0.6252575 0.44606256 -7.514402
v -0.8153583 0.44606256 -7.704503
v -0.5304071 -0.0055322265 -7.6880274
v -0.7913525 0.44606256 -7.3483047
v -0.5304071 -0.0055322265 -7.6880274
v -0.6164532 -0.0055322265 -7.6019797
v -0.6252575 0.44606256 -7.514402
v -0.7353003 -0.0055322265 -7.7208257
v -0.7913525 0.44606256 -7.3483047
v -0.6164532 -0.0055322265 -7.6019797
v -0.981455 0.44606256 -7.5384064
v -1.6107876 -0.0055322265 -7.8068724
v -1.6347842 0.60122615 -7.514402
v -1.7296352 -0.0055322265 -7.6880274
v -1.4446828 0.60122615 -7.704503
v -1.4686879 0.60122615 -7.3483047
v -1.7296352 -0.0055322265 -7.6880274
v -1.6347842 0.60122615 -7.514402
v -1.6435881 -0.0055322265 -7.60198
v -1.5247402 -0.0055322265 -7.7208257
v -1.4686879 0.60122615 -7.3483047
v -1.2785885 0.60122615 -7.5384064
v -1.6435881 -0.0055322265 -7.60198
v 2.1473267 1.292377 -7.794962
v -0.24408996 1.292377 -4.184414
v -0.24409087 1.292377 -7.794962
v 2.1473267 1.292377 -4.184414
v 2.1473267 1.292377 -4.184414
v -0.24409087 1.0706656 -4.184414
v -0.24408996 1.292377 -4.184414
v 2.1473267 1.0706656 -4.184414
v -0.24409087 1.0706656 -4.184414
v -0.24409087 1.292377 -7.794962
v -0.24408996 1.292377 -4.184414
v -0.24409087 1.0706656 -7.794962
v 2.1473267 1.292377 -7.794962
v 2.1473267 1.0706656 -4.184414
v 2.1473267 1.292377 -4.184414
v 2.1473267 1.0706656 -7.794962
v -0.06373749 -0.010942383 -4.5313997
v 0.22873412 1.167277 -4.5074034
v 0.055109862 -0.010942383 -4.412553
v 0.03863403 1.167277 -4.697504
v 0.39483154 1.167277 -4.6735
v 0.055109862 -0.010942383 -4.412553
v 0.22873412 1.167277 -4.5074034
v 0.14115599 -0.010942383 -4.4986
v 0.022312012 -0.010942383 -4.617447
v 0.39483154 1.167277 -4.6735
v 0.20473021 1.167277 -4.863601
v 0.14115599 -0.010942383 -4.4986
v 2.0824757 -0.010942383 -4.5313997
v 1.7900072 1.167277 -4.5074034
v 1.9801061 1.167277 -4.697504
v 1.9636291 -0.010942383 -4.412553
v 1.6239074 1.167277 -4.6735
v 1.9636291 -0.010942383 -4.412553
v 1.8775842 -0.010942383 -4.4986
v 1.7900072 1.167277 -4.5074034
v 1.9964284 -0.010942383 -4.617447
v 1.6239074 1.167277 -4.6735
v 1.8775842 -0.010942383 -4.4986
v 1.8140087 1.167277 -4.863601
v 0.0533728 -0.010942383 -7.4274273
v 0.02937622 1.167277 -7.134956
v 0.21947753 1.167277 -7.325057
v -0.06547455 -0.010942383 -7.308582
v 0.19547118 1.167277 -6.9688597
v -0.06547455 -0.010942383 -7.308582
v 0.02057251 -0.010942383 -7.222535
v 0.02937622 1.167277 -7.134956
v 0.13942017 -0.010942383 -7.3413806
v 0.19547118 1.167277 -6.9688597
v 0.02057251 -0.010942383 -7.222535
v 0.38557371 1.167277 -7.158961
v 1.9589111 -0.010942383 -7.4274273
v 1.9829065 1.167277 -7.1349564
v 1.7928039 1.167277 -7.325058
v 2.0777576 -0.010942383 -7.308582
v 1.8168103 1.167277 -6.9688597
v 2.0777576 -0.010942383 -7.308582
v 1.991709 -0.010942383 -7.222535
v 1.9829065 1.167277 -7.1349564
v 1.8728625 -0.010942383 -7.3413806
v 1.8168103 1.167277 -6.9688597
v 1.991709 -0.010942383 -7.222535
v 1.626709 1.167277 -7.158961
v 2.4263346 -0.0055371094 -4.6541734
v 2.7188067 0.4616487 -4.630177
v 2.545181 -0.0055371094 -4.535326
v 2.5287068 0.4616487 -4.820277
v 2.8849046 0.4616487 -4.7962737
v 2.545181 -0.0055371094 -4.535326
v 2.7188067 0.4616487 -4.630177
v 2.631228 -0.0055371094 -4.6213737
v 2.5123832 -0.0055371094 -4.7402205
v 2.8849046 0.4616487 -4.7962737
v 2.6948028 0.4616487 -4.9863744
v 2.631228 -0.0055371094 -4.6213737
v 3.5949833 -0.0055371094 -4.6541734
v 3.3025155 0.6168123 -4.630177
v 3.492614 0.6168123 -4.820277
v 3.476137 -0.0055371094 -4.535326
v 3.136417 0.6168123 -4.7962737
v 3.476137 -0.0055371094 -4.535326
v 3.390091 -0.0055371094 -4.6213737
v 3.3025155 0.6168123 -4.630177
v 3.508935 -0.0055371094 -4.7402205
v 3.136417 0.6168123 -4.7962737
v 3.390091 -0.0055371094 -4.6213737
v 3.3265195 0.6168123 -4.9863744
v 2.5434427 -0.0055371094 -7.806873
v 2.5194478 0.4616487 -7.5144024
v 2.4245975 -0.0055371094 -7.6880274
v 2.7095506 0.4616487 -7.7045035
v 2.6855438 0.4616487 -7.3483047
v 2.4245975 -0.0055371094 -7.6880274
v 2.5194478 0.4616487 -7.5144024
v 2.5106425 -0.0055371094 -7.601981
v 2.6294904 -0.0055371094 -7.7208257
v 2.6855438 0.4616487 -7.3483047
v 2.8756464 0.4616487 -7.538407
v 2.5106425 -0.0055371094 -7.601981
v 3.4710753 -0.0055371094 -7.8068724
v 3.4950726 0.6168123 -7.514402
v 3.30497 0.6168123 -7.704503
v 3.5899205 -0.0055371094 -7.6880274
v 3.3289752 0.6168123 -7.3483047
v 3.5899205 -0.0055371094 -7.6880274
v 3.5038736 -0.0055371094 -7.60198
v 3.4950726 0.6168123 -7.514402
v 3.385026 -0.0055371094 -7.7208257
v 3.3289752 0.6168123 -7.3483047
v 3.5038736 -0.0055371094 -7.60198
v 3.1388757 0.6168123 -7.5384064
v 2.1473267 1.0706656 -7.794962
v -0.24408996 1.0706656 -4.184414
v 2.1473267 1.0706656 -4.184414
v -0.24409087 1.0706656 -7.794962
v -1.822233 0.24368954 -4.468235
v -1.822233 0.8880913 -7.963497
v -1.822233 0.8880913 -4.468235
v -1.822233 0.24368954 -7.963497
v -1.822233 2.085738 -7.963497
v -1.822233 2.085738 -4.468235
v -0.43600094 0.24368954 -7.963497
v -0.46819514 0.7590967 -4.468235
v -0.46819514 0.7590967 -7.963497
v -0.43600094 0.24368954 -4.468235
v -1.5994583 2.0273297 -7.963497
v -1.173953 0.77992004 -4.468235
v -1.5994583 2.0273297 -4.468235
v -1.173953 0.77992004 -7.963497
v -1.173953 0.77992004 -4.468235
v -1.822233 2.085738 -4.468235
v -1.5994583 2.0273297 -4.468235
v -1.822233 0.8880913 -4.468235
v -1.822233 0.24368954 -4.468235
v -0.46819514 0.7590967 -4.468235
v -0.43600094 0.24368954 -4.468235
v -0.46819514 0.7590967 -4.468235
v -1.173953 0.77992004 -7.963497
v -0.46819514 0.7590967 -7.963497
v -1.173953 0.77992004 -4.468235
v -1.5994583 2.0273297 -4.468235
v -1.822233 2.085738 -7.963497
v -1.5994583 2.0273297 -7.963497
v -1.822233 2.085738 -4.468235
v 3.6825204 0.25927565 -4.468235
v 3.6825187 0.9036774 -7.963497
v 3.6825204 0.25927565 -7.963497
v 3.6825187 0.9036774 -4.468235
v 2.3301923 0.25927565 -7.963497
v 2.3731155 0.75858533 -4.468235
v 2.3301923 0.25927565 -4.468235
v 2.3731155 0.75858533 -7.963497
v 3.4597445 2.0429158 -7.963497
v 3.0342386 0.7955061 -4.468235
v 3.0342386 0.7955061 -7.963497
v 3.4597445 2.0429158 -4.468235
v 3.6825187 0.9036774 -4.468235
v 3.6825187 2.1013238 -7.963497
v 3.6825187 0.9036774 -7.963497
v 3.6825187 2.1013238 -4.468235
v 3.0342386 0.7955061 -4.468235
v 3.6825187 2.1013238 -4.468235
v 3.6825187 0.9036774 -4.468235
v 3.4597445 2.0429158 -4.468235
v 3.6825187 0.9036774 -4.468235
v 3.6825204 0.25927565 -4.468235
v 2.3301923 0.25927565 -4.468235
v 3.0342386 0.7955061 -4.468235
v 2.3731155 0.75858533 -4.468235
v 2.3731155 0.75858533 -4.468235
v 3.0342386 0.7955061 -7.963497
v 3.0342386 0.7955061 -4.468235
v 2.3731155 0.75858533 -7.963497
v 3.4597445 2.0429158 -4.468235
v 3.6825187 2.1013238 -7.963497
v 3.6825187 2.1013238 -4.468235
v 3.4597445 2.0429158 -7.963497
v -3.3439069 1.889071 -5.373904
v -3.2634594 1.6463379 -5.206499
v -3.4295506 1.7452319 -5.206499
v -3.1778154 1.790177 -5.373904
v -3.4295506 1.7452319 -5.206499
v -3.3491032 1.5024986 -5.373904
v -3.5151947 1.601393 -5.373904
v -3.2634594 1.6463379 -5.206499
v -3.4295506 1.7452319 -5.206499
v -3.5125964 1.7946777 -5.373904
v -3.3439069 1.889071 -5.373904
v -3.5151947 1.601393 -5.373904
v -3.5125964 1.7946777 -5.373904
v -3.4295506 1.7452319 -5.206499
v -3.1778154 1.790177 -5.373904
v -3.1804144 1.596892 -5.373904
v -3.2634594 1.6463379 -5.206499
v -3.2634594 1.6463379 -5.206499
v -3.1804144 1.596892 -5.373904
v -3.3491032 1.5024986 -5.373904
v -4.126977 1.8365893 -5.373904
v -3.9034777 1.7123339 -5.206499
v -4.0926814 1.6727319 -5.206499
v -3.9377735 1.8761889 -5.373904
v -4.0926814 1.6727319 -5.206499
v -3.8691826 1.5484802 -5.373904
v -4.058386 1.5088781 -5.373904
v -3.9034777 1.7123339 -5.206499
v -4.0926814 1.6727319 -5.206499
v -4.1872826 1.652932 -5.373904
v -4.126977 1.8365893 -5.373904
v -4.058386 1.5088781 -5.373904
v -4.1872826 1.652932 -5.373904
v -4.0926814 1.6727319 -5.206499
v -3.9377735 1.8761889 -5.373904
v -3.8088763 1.7321352 -5.373904
v -3.9034777 1.7123339 -5.206499
v -3.9034777 1.7123339 -5.206499
v -3.8088763 1.7321352 -5.373904
v -3.8691826 1.5484802 -5.373904
v -3.87486 1.6814648 -5.373904
v -3.6444507 1.7923803 -5.206499
v -3.7212243 1.6149768 -5.206499
v -3.7980864 1.8588672 -5.373904
v -3.7212243 1.6149768 -5.206499
v -3.4908154 1.7258923 -5.373904
v -3.5675883 1.5484887 -5.373904
v -3.6444507 1.7923803 -5.206499
v -3.7212243 1.6149768 -5.206499
v -3.7596111 1.5262743 -5.373904
v -3.87486 1.6814648 -5.373904
v -3.5675883 1.5484887 -5.373904
v -3.7596111 1.5262743 -5.373904
v -3.7212243 1.6149768 -5.206499
v -3.7980864 1.8588672 -5.373904
v -3.6060638 1.8810815 -5.373904
v -3.6444507 1.7923803 -5.206499
v -3.6444507 1.7923803 -5.206499
v -3.6060638 1.8810815 -5.373904
v -3.4908154 1.7258923 -5.373904
v -3.9698236 1.9918469 -5.5747495
v -3.7463243 1.8675927 -5.4073443
v -3.9355278 1.8279918 -5.4073443
v -3.78062 2.0314476 -5.5747495
v -3.9355278 1.8279918 -5.4073443
v -3.7120292 1.7037376 -5.5747495
v -3.9012322 1.6641357 -5.5747495
v -3.7463243 1.8675927 -5.4073443
v -3.9355278 1.8279918 -5.4073443
v -4.0301294 1.8081896 -5.5747495
v -3.9698236 1.9918469 -5.5747495
v -3.9012322 1.6641357 -5.5747495
v -4.0301294 1.8081896 -5.5747495
v -3.9355278 1.8279918 -5.4073443
v -3.78062 2.0314476 -5.5747495
v -3.651723 1.8873937 -5.5747495
v -3.7463243 1.8675927 -5.4073443
v -3.7463243 1.8675927 -5.4073443
v -3.651723 1.8873937 -5.5747495
v -3.7120292 1.7037376 -5.5747495
v -3.661712 1.9918469 -5.5747495
v -3.4382129 1.8675927 -5.4073443
v -3.6274164 1.8279918 -5.4073443
v -3.4725084 2.0314476 -5.5747495
v -3.6274164 1.8279918 -5.4073443
v -3.4039178 1.7037376 -5.5747495
v -3.5931206 1.6641357 -5.5747495
v -3.4382129 1.8675927 -5.4073443
v -3.6274164 1.8279918 -5.4073443
v -3.7220178 1.8081896 -5.5747495
v -3.661712 1.9918469 -5.5747495
v -3.5931206 1.6641357 -5.5747495
v -3.7220178 1.8081896 -5.5747495
v -3.6274164 1.8279918 -5.4073443
v -3.4725084 2.0314476 -5.5747495
v -3.3436115 1.8873937 -5.5747495
v -3.4382129 1.8675927 -5.4073443
v -3.4382129 1.8675927 -5.4073443
v -3.3436115 1.8873937 -5.5747495
v -3.4039178 1.7037376 -5.5747495
v 2.4462268 4.330984 -8.61551
v 3.6041942 2.738623 -8.61551
v 2.4238477 2.7568042 -8.61551
v 3.5457017 4.3472657 -8.61551
vt 0.7378363 0.12522602
vt 0.51216316 0.37459707
vt 0.7378363 0.37459707
vt 0.51216316 0.12522602
vt 0.8176857 0.115666986
vt 0.8707059 0.24959706
vt 0.8707059 0.115666986
vt 0.8176857 0.24959706
vt 0.75049484 0.24959706
vt 0.75049484 0.093373165
vt 0.81368005 0.08654872
vt 0.90881765 0.24959706
vt 0.9033909 0.11153396
vt 0.99971807 0.24959706
vt 0.9076861 0.085937545
vt 0.99971807 0.09333081
vt 0.75049484 0.24959706
vt 0.75049484 0.09349377
vt 0.8239263 0.08653972
vt 0.82490695 0.115521654
vt 0.83070797 0.24959706
vt 0.87084 0.115521654
vt 0.87084 0.24959706
vt 0.91555977 0.115521654
vt 0.9206388 0.24959706
vt 0.99971807 0.24959706
vt 0.9969604 0.092613384
vt 0.9191074 0.08577121
vt 0.9439336 0.09342464
vt 0.75049484 0.24959706
vt 0.75049484 0.09342525
vt 0.94393086 0.24959706
vt 0.9439346 0.093421854
vt 0.75049484 0.24959706
vt 0.94393086 0.24959706
vt 0.75049484 0.09342463
vt 0.76596403 0.09304568
vt 0.9916555 0.24962458
vt 0.99163777 0.09304813
vt 0.7659821 0.24962321
vt 0.0004948628 0.37522602
vt 0.21350941 0.5448271
vt 0.21350928 0.37522602
vt 0.0004948628 0.5448273
vt 0.0004948628 0.37522602
vt 0.24971804 0.5448273
vt 0.24971804 0.37522602
vt 0.0004948628 0.5448273
vt 0.036490463 0.37522602
vt 0.24971804 0.5448273
vt 0.24971804 0.37522602
vt 0.036490202 0.5448275
vt 0.0004948628 0.37522602
vt 0.16049212 0.5448271
vt 0.16049261 0.37522602
vt 0.0004948628 0.5448273
vt 0.025465667 0.37522602
vt 0.24971804 0.5448273
vt 0.24971804 0.37522602
vt 0.025465185 0.5448271
vt 0.05939394 0.37522602
vt 0.15104301 0.54482734
vt 0.15104313 0.37522602
vt 0.059393696 0.5448274
vt 0.0004948628 0.37522602
vt 0.16049212 0.5448271
vt 0.0004948628 0.5448273
vt 0.16049261 0.37522602
vt 0.025465667 0.37522602
vt 0.24971804 0.5448273
vt 0.025465185 0.5448271
vt 0.24971804 0.37522602
vt 0.05939394 0.37522602
vt 0.15104301 0.54482734
vt 0.059393696 0.5448274
vt 0.15104313 0.37522602
vt 0.99971807 0.500226
vt 0.7662495 0.7495971
vt 0.99971807 0.7495971
vt 0.7662495 0.500226
vt 0.81773376 0.500226
vt 0.75049484 0.7495971
vt 0.81773376 0.7495971
vt 0.75049484 0.500226
vt 0.99971807 0.500226
vt 0.76625055 0.5812613
vt 0.99971807 0.5812613
vt 0.76624864 0.500226
vt 0.8177341 0.500226
vt 0.75049484 0.5812689
vt 0.8177352 0.5812689
vt 0.75049484 0.500226
vt 0.68272716 0.050593067
vt 0.6830976 0.051534932
vt 0.6831897 0.05148293
vt 0.68262863 0.05063748
vt 0.68270385 0.050563652
vt 0.68270385 0.050563652
vt 0.6826057 0.05053862
vt 0.6827781 0.050459377
vt 0.68270385 0.050563652
vt 0.6826216 0.050435007
vt 0.6827787 0.049718436
vt 0.682621 0.049744517
vt 0.6826053 0.049638826
vt 0.68270415 0.0496154
vt 0.6826328 0.049547732
vt 0.6827209 0.04957219
vt 0.6830988 0.048644222
vt 0.68318886 0.048695095
vt 0.68270415 0.0496154
vt 0.68272716 0.050593067
vt 0.683237 0.05145648
vt 0.6827733 0.05057291
vt 0.6831897 0.05148293
vt 0.68270385 0.050563652
vt 0.6827781 0.050459377
vt 0.6828478 0.04971587
vt 0.6827787 0.049718436
vt 0.6827781 0.050459377
vt 0.6828472 0.050463125
vt 0.6827496 0.050586775
vt 0.6827496 0.050586775
vt 0.68270385 0.050563652
vt 0.68275 0.04959133
vt 0.6827787 0.049718436
vt 0.68275 0.04959133
vt 0.68270415 0.0496154
vt 0.6827733 0.05057291
vt 0.6827496 0.050586775
vt 0.68270385 0.050563652
vt 0.6827209 0.04957219
vt 0.6832361 0.048722398
vt 0.68318886 0.048695095
vt 0.68277526 0.049613044
vt 0.68270415 0.0496154
vt 0.68277526 0.049613044
vt 0.68275 0.04959133
vt 0.6823866 0.049998436
vt 0.68371403 0.050813645
vt 0.68396 0.050277364
vt 0.6822342 0.050813645
vt 0.68371403 0.050813645
vt 0.68396276 0.051636733
vt 0.6847758 0.05101848
vt 0.684625 0.05084742
vt 0.68371403 0.050813645
vt 0.68396 0.050277364
vt 0.68483734 0.05062589
vt 0.68396 0.050277364
vt 0.684625 0.05084742
vt 0.68417007 0.05004321
vt 0.6847758 0.05101848
vt 0.6849974 0.05079306
vt 0.68371403 0.049364954
vt 0.68371403 0.049364954
vt 0.68371403 0.049364954
vt 0.68371403 0.049364954
vt 0.68371403 0.049364954
vt 0.6833533 0.05001664
vt 0.68358994 0.049897533
vt 0.6833138 0.05006707
vt 0.6833533 0.05001664
vt 0.68359095 0.049948744
vt 0.68358994 0.049897533
vt 0.6833533 0.05001664
vt 0.68359596 0.049958177
vt 0.68359095 0.049948744
vt 0.6833533 0.05001664
vt 0.68335295 0.04999919
vt 0.68359596 0.049958177
vt 0.6838917 0.05046529
vt 0.68348986 0.050279964
vt 0.68366486 0.05056616
vt 0.6836879 0.05003614
vt 0.6833138 0.05006707
vt 0.6833533 0.05001664
vt 0.683501 0.05155631
vt 0.68333894 0.051427044
vt 0.6832041 0.051448546
vt 0.6831445 0.05171067
vt 0.6830815 0.05138278
vt 0.6828342 0.051403288
vt 0.68374795 0.04929676
vt 0.6834379 0.049166314
vt 0.6838917 0.05046529
vt 0.68359816 0.051607326
vt 0.6840062 0.050463315
vt 0.683501 0.05155631
vt 0.68378043 0.049914863
vt 0.6831392 0.051782362
vt 0.6831392 0.051782362
vt 0.6831445 0.05171067
vt 0.6828082 0.0513922
vt 0.6831392 0.051782362
vt 0.6828342 0.051403288
vt 0.68354475 0.049221035
vt 0.6834379 0.049166314
vt 0.68354475 0.049221035
vt 0.6831445 0.05171067
vt 0.6828342 0.051403288
vt 0.68378043 0.049914863
vt 0.6836879 0.05003614
vt 0.6838917 0.05046529
vt 0.68335295 0.04999919
vt 0.6836879 0.05003614
vt 0.68378043 0.049914863
vt 0.6833533 0.05001664
vt 0.68238527 0.051628157
vt 0.68371403 0.050813645
vt 0.6822342 0.050813645
vt 0.68395674 0.051352613
vt 0.68371403 0.050813645
vt 0.6846237 0.050790098
vt 0.68477625 0.05062052
vt 0.68396986 0.049998373
vt 0.68371403 0.050813645
vt 0.68395674 0.051352613
vt 0.6848345 0.051012397
vt 0.68395674 0.051352613
vt 0.6841642 0.05158764
vt 0.6846237 0.050790098
vt 0.68477625 0.05062052
vt 0.684995 0.05084737
vt 0.68371403 0.049364954
vt 0.68469787 0.049365096
vt 0.68469787 0.04913941
vt 0.68371403 0.04830623
vt 0.68448657 0.04830623
vt 0.6823866 0.049998436
vt 0.68371403 0.050813645
vt 0.68396 0.050277364
vt 0.6822342 0.050813645
vt 0.68238527 0.051628157
vt 0.68371403 0.050813645
vt 0.6822342 0.050813645
vt 0.68395674 0.051352613
vt 0.0036387288 0.2509968
vt 0.016174369 0.37479854
vt 0.016174918 0.2509943
vt 0.0036390836 0.37479854
vt 0.016174918 0.2509943
vt 0.028709646 0.37479854
vt 0.028709894 0.2509945
vt 0.016174369 0.37479854
vt 0.028709894 0.2509945
vt 0.041244924 0.37479854
vt 0.04124669 0.25099576
vt 0.028709646 0.37479854
vt 0.04124669 0.25099576
vt 0.053780198 0.37479854
vt 0.053780925 0.25099763
vt 0.041244924 0.37479854
vt 0.053780925 0.25099763
vt 0.06631548 0.37479854
vt 0.06631469 0.25099388
vt 0.053780198 0.37479854
vt 0.0036390852 0.30742246
vt 0.01617437 0.32041842
vt 0.0036390848 0.32041842
vt 0.016174372 0.30742246
vt 0.016174369 0.37479854
vt 0.0036390836 0.37479854
vt 0.016174372 0.30742246
vt 0.028709643 0.32041842
vt 0.01617437 0.32041842
vt 0.028709646 0.30742246
vt 0.028709646 0.37479854
vt 0.016174369 0.37479854
vt 0.028709646 0.30742246
vt 0.041244928 0.32041842
vt 0.028709643 0.32041842
vt 0.04124493 0.30742246
vt 0.041244924 0.37479854
vt 0.028709646 0.37479854
vt 0.028709643 0.29442653
vt 0.04124493 0.29442653
vt 0.028709646 0.250113
vt 0.04124493 0.250113
vt 0.04124493 0.30742246
vt 0.053780194 0.32041842
vt 0.041244928 0.32041842
vt 0.053780206 0.30742246
vt 0.053780198 0.37479854
vt 0.041244924 0.37479854
vt 0.04124493 0.29442653
vt 0.053780198 0.29442653
vt 0.04124493 0.250113
vt 0.053780206 0.250113
vt 0.053780206 0.30742246
vt 0.06631548 0.32041842
vt 0.053780194 0.32041842
vt 0.06631548 0.30742246
vt 0.06631548 0.37479854
vt 0.053780198 0.37479854
vt 0.053780198 0.29442653
vt 0.06631548 0.29442653
vt 0.06631548 0.250113
vt 0.053780206 0.250113
vt 0.016174372 0.29442653
vt 0.0036390866 0.250113
vt 0.016174372 0.250113
vt 0.0036390857 0.29442653
vt 0.016174372 0.30742246
vt 0.0036390852 0.30742246
vt 0.028709643 0.29442653
vt 0.016174372 0.250113
vt 0.028709646 0.250113
vt 0.016174372 0.29442653
vt 0.028709646 0.30742246
vt 0.016174372 0.30742246
vt 0.0036390824 0.35310125
vt 0.016174369 0.37479854
vt 0.003639083 0.37479854
vt 0.016174367 0.35310125
vt 0.016174367 0.35310125
vt 0.028709646 0.37479854
vt 0.016174369 0.37479854
vt 0.028709654 0.35310137
vt 0.028709654 0.35310137
vt 0.041244924 0.37479854
vt 0.028709646 0.37479854
vt 0.04124494 0.35310128
vt 0.04124494 0.35310128
vt 0.053780198 0.37479854
vt 0.041244924 0.37479854
vt 0.053780206 0.35310128
vt 0.053780206 0.35310128
vt 0.06631548 0.37479854
vt 0.053780198 0.37479854
vt 0.06631546 0.35310128
vt 0.6279502 0.1200853
vt 0.64830565 0.12389588
vt 0.6279502 0.12389588
vt 0.64830565 0.1200853
vt 0.7477795 0.09504074
vt 0.745559 0.12205691
vt 0.745559 0.098912984
vt 0.74888974 0.12352846
vt 0.7228429 0.098912895
vt 0.71977323 0.09633139
vt 0.7228429 0.12205683
vt 0.72079647 0.12426412
vt 0.6279502 0.1200853
vt 0.64830565 0.12389588
vt 0.64830565 0.1200853
vt 0.6279502 0.12389588
vt 0.6283805 0.120084696
vt 0.64857584 0.12389588
vt 0.64857584 0.120084696
vt 0.6283805 0.12389588
vt 0.745559 0.12205691
vt 0.745559 0.11048494
vt 0.745559 0.098912984
vt 0.745559 0.098912984
vt 0.7228429 0.11048486
vt 0.7228429 0.098912895
vt 0.745559 0.11048494
vt 0.7228429 0.098912895
vt 0.7228429 0.11048486
vt 0.7228429 0.12205683
vt 0.7228429 0.12205683
vt 0.745559 0.11048494
vt 0.745559 0.12205691
vt 0.7228429 0.11048486
vt 0.6592885 0.46715438
vt 0.66992134 0.50245696
vt 0.66992134 0.46715438
vt 0.6592885 0.50245696
vt 0.66992134 0.46715438
vt 0.68055415 0.50245696
vt 0.68055415 0.46715438
vt 0.66992134 0.50245696
vt 0.63802284 0.46715438
vt 0.64865565 0.50245696
vt 0.64865565 0.46715438
vt 0.63802284 0.50245696
vt 0.6592885 0.50245696
vt 0.64865565 0.46715438
vt 0.64865565 0.50245696
vt 0.6592885 0.46715438
vt 0.6592885 0.46715438
vt 0.66992134 0.53775954
vt 0.6592885 0.53775954
vt 0.66992134 0.46715438
vt 0.66992134 0.46715438
vt 0.68055415 0.53775954
vt 0.66992134 0.53775954
vt 0.68055415 0.46715438
vt 0.63802284 0.46715438
vt 0.64865565 0.53775954
vt 0.63802284 0.53775954
vt 0.64865565 0.46715438
vt 0.6592885 0.53775954
vt 0.64865565 0.46715438
vt 0.6592885 0.46715438
vt 0.64865565 0.53775954
vt 0.6592885 0.53775954
vt 0.64865565 0.50245696
vt 0.64865565 0.53775954
vt 0.6592885 0.50245696
vt 0.63802284 0.50245696
vt 0.64865565 0.53775954
vt 0.64865565 0.50245696
vt 0.63802284 0.53775954
vt 0.66992134 0.50245696
vt 0.68055415 0.53775954
vt 0.68055415 0.50245696
vt 0.66992134 0.53775954
vt 0.6592885 0.50245696
vt 0.66992134 0.53775954
vt 0.66992134 0.50245696
vt 0.6592885 0.50245696
vt 0.6592885 0.53775954
vt 0.1875 0.1875
vt 0.24971804 0.24959706
vt 0.24971804 0.1875
vt 0.1875 0.24959706
vt 0.1875 0.24959706
vt 0.24971804 0.21875
vt 0.24971804 0.24959706
vt 0.1875 0.21875
vt 0.21875 0.24959706
vt 0.24971804 0.1875
vt 0.24971804 0.24959706
vt 0.21875 0.1875
vt 0.1875 0.24959706
vt 0.1875 0.1875
vt 0.1875 0.24959706
vt 0.21875 0.1875
vt 0.1875 0.1875
vt 0.21875 0.24959706
vt 0.24971804 0.1875
vt 0.24971804 0.24959706
vt 0.1875 0.21875
vt 0.24971804 0.1875
vt 0.24971804 0.21875
vt 0.1875 0.1875
vt 0.19215642 0.21104485
vt 0.24971804 0.24071935
vt 0.19215643 0.24071936
vt 0.24971804 0.21104483
vt 0.18750207 0.24072033
vt 0.24971804 0.2110455
vt 0.18750015 0.2110455
vt 0.24971804 0.24072033
vt 0.19215624 0.21104486
vt 0.24971804 0.24071935
vt 0.24971804 0.21104486
vt 0.19215623 0.24071935
vt 0.19215642 0.21104485
vt 0.24971804 0.24071935
vt 0.24971804 0.21104483
vt 0.19215643 0.24071936
vt 0.18750207 0.24072033
vt 0.24971804 0.2110455
vt 0.24971804 0.24072033
vt 0.18750015 0.2110455
vt 0.19215624 0.21104486
vt 0.24971804 0.24071935
vt 0.19215623 0.24071935
vt 0.24971804 0.21104486
vt 0.19215642 0.21104485
vt 0.24971804 0.24071935
vt 0.19215643 0.24071936
vt 0.24971804 0.21104483
vt 0.18750207 0.24072033
vt 0.24971804 0.2110455
vt 0.18750015 0.2110455
vt 0.24971804 0.24072033
vt 0.19215624 0.21104486
vt 0.24971804 0.24071935
vt 0.24971804 0.21104486
vt 0.19215623 0.24071935
vt 0.19215642 0.21104485
vt 0.24971804 0.24071935
vt 0.24971804 0.21104483
vt 0.19215643 0.24071936
vt 0.18750207 0.24072033
vt 0.24971804 0.2110455
vt 0.24971804 0.24072033
vt 0.18750015 0.2110455
vt 0.19215624 0.21104486
vt 0.24971804 0.24071935
vt 0.19215623 0.24071935
vt 0.24971804 0.21104486
vt 0.1875 0.1875
vt 0.24971804 0.24959706
vt 0.24971804 0.1875
vt 0.1875 0.24959706
vt 0.1875 0.24959706
vt 0.24971804 0.1875
vt 0.24971804 0.24959706
vt 0.1875 0.1875
vt 0.1875 0.24959706
vt 0.24971804 0.1875
vt 0.24971804 0.24959706
vt 0.1875 0.1875
vt 0.1875 0.24959706
vt 0.24971804 0.1875
vt 0.1875 0.1875
vt 0.24971804 0.24959706
vt 0.19215642 0.21104485
vt 0.24971804 0.24071935
vt 0.24971804 0.21104483
vt 0.19215643 0.24071936
vt 0.18750207 0.24072033
vt 0.24971804 0.2110455
vt 0.24971804 0.24072033
vt 0.18750015 0.2110455
vt 0.19215624 0.21104486
vt 0.24971804 0.24071935
vt 0.19215623 0.24071935
vt 0.24971804 0.21104486
vt 0.19215642 0.21104485
vt 0.24971804 0.24071935
vt 0.19215643 0.24071936
vt 0.24971804 0.21104483
vt 0.18750207 0.24072033
vt 0.24971804 0.2110455
vt 0.18750015 0.2110455
vt 0.24971804 0.24072033
vt 0.19215624 0.21104486
vt 0.24971804 0.24071935
vt 0.24971804 0.21104486
vt 0.19215623 0.24071935
vt 0.19215642 0.21104485
vt 0.24971804 0.24071935
vt 0.19215643 0.24071936
vt 0.24971804 0.21104483
vt 0.18750207 0.24072033
vt 0.24971804 0.2110455
vt 0.18750015 0.2110455
vt 0.24971804 0.24072033
vt 0.19215624 0.21104486
vt 0.24971804 0.24071935
vt 0.24971804 0.21104486
vt 0.19215623 0.24071935
vt 0.19215642 0.21104485
vt 0.24971804 0.24071935
vt 0.19215643 0.24071936
vt 0.24971804 0.21104483
vt 0.18750207 0.24072033
vt 0.24971804 0.2110455
vt 0.18750015 0.2110455
vt 0.24971804 0.24072033
vt 0.19215624 0.21104486
vt 0.24971804 0.24071935
vt 0.24971804 0.21104486
vt 0.19215623 0.24071935
vt 0.19215642 0.21104485
vt 0.24971804 0.24071935
vt 0.24971804 0.21104483
vt 0.19215643 0.24071936
vt 0.18750207 0.24072033
vt 0.24971804 0.2110455
vt 0.24971804 0.24072033
vt 0.18750015 0.2110455
vt 0.19215624 0.21104486
vt 0.24971804 0.24071935
vt 0.19215623 0.24071935
vt 0.24971804 0.21104486
vt 0.19215642 0.21104485
vt 0.24971804 0.24071935
vt 0.19215643 0.24071936
vt 0.24971804 0.21104483
vt 0.18750207 0.24072033
vt 0.24971804 0.2110455
vt 0.18750015 0.2110455
vt 0.24971804 0.24072033
vt 0.19215624 0.21104486
vt 0.24971804 0.24071935
vt 0.24971804 0.21104486
vt 0.19215623 0.24071935
vt 0.19215642 0.21104485
vt 0.24971804 0.24071935
vt 0.24971804 0.21104483
vt 0.19215643 0.24071936
vt 0.18750207 0.24072033
vt 0.24971804 0.2110455
vt 0.24971804 0.24072033
vt 0.18750015 0.2110455
vt 0.19215624 0.21104486
vt 0.24971804 0.24071935
vt 0.19215623 0.24071935
vt 0.24971804 0.21104486
vt 0.19215642 0.21104485
vt 0.24971804 0.24071935
vt 0.19215643 0.24071936
vt 0.24971804 0.21104483
vt 0.18750207 0.24072033
vt 0.24971804 0.2110455
vt 0.18750015 0.2110455
vt 0.24971804 0.24072033
vt 0.19215624 0.21104486
vt 0.24971804 0.24071935
vt 0.24971804 0.21104486
vt 0.19215623 0.24071935
vt 0.1875 0.1875
vt 0.24971804 0.24959706
vt 0.1875 0.24959706
vt 0.24971804 0.1875
vt 0.06453859 0.54736966
vt 0.06453859 0.54736966
vt 0.06453859 0.54736966
vt 0.06453859 0.54736966
vt 0.06453859 0.54736966
vt 0.06453859 0.54736966
vt 0.0004948628 0.54736966
vt 0.0645386 0.55360943
vt 0.0004948628 0.55360943
vt 0.06453859 0.54736966
vt 0.0004948628 0.5927701
vt 0.064066015 0.54589915
vt 0.06406599 0.5927701
vt 0.0004948628 0.54589915
vt 0.06453859 0.54736966
vt 0.06453859 0.54736966
vt 0.06453859 0.54736966
vt 0.06453859 0.54736966
vt 0.06453859 0.54736966
vt 0.06453859 0.54736966
vt 0.06453859 0.54736966
vt 0.0645386 0.55360943
vt 0.0004948628 0.6015605
vt 0.0004948628 0.55360943
vt 0.0645386 0.6015605
vt 0.06406599 0.5927701
vt 0.0004948628 0.6014905
vt 0.0004948628 0.5927701
vt 0.06406599 0.6014905
vt 0.06453859 0.54736966
vt 0.06453859 0.54736966
vt 0.06453859 0.54736966
vt 0.06453859 0.54736966
vt 0.0004948628 0.54736966
vt 0.0645386 0.55360943
vt 0.06453859 0.54736966
vt 0.0004948628 0.55360943
vt 0.0004948628 0.5927701
vt 0.064066015 0.54589915
vt 0.0004948628 0.54589915
vt 0.06406599 0.5927701
vt 0.06453859 0.54736966
vt 0.06453859 0.54736966
vt 0.06453859 0.54736966
vt 0.06453859 0.54736966
vt 0.06453859 0.54736966
vt 0.06453859 0.54736966
vt 0.06453859 0.54736966
vt 0.06453859 0.54736966
vt 0.06453859 0.54736966
vt 0.06453859 0.54736966
vt 0.06453859 0.54736966
vt 0.06453859 0.54736966
vt 0.06453859 0.54736966
vt 0.0645386 0.55360943
vt 0.0004948628 0.6015605
vt 0.0645386 0.6015605
vt 0.0004948628 0.55360943
vt 0.06406599 0.5927701
vt 0.0004948628 0.6014905
vt 0.06406599 0.6014905
vt 0.0004948628 0.5927701
vt 0.14764716 0.58131075
vt 0.14764817 0.58131206
vt 0.14764817 0.58131075
vt 0.14764716 0.58131206
vt 0.14764817 0.58131075
vt 0.14764918 0.58131206
vt 0.14764918 0.58131075
vt 0.14764817 0.58131206
vt 0.14764817 0.58131075
vt 0.14764766 0.5813094
vt 0.14764716 0.58131075
vt 0.14764918 0.58131075
vt 0.14764868 0.5813094
vt 0.14764817 0.58131075
vt 0.14764716 0.58131206
vt 0.14764766 0.5813135
vt 0.14764817 0.58131206
vt 0.14764817 0.58131206
vt 0.14764868 0.5813135
vt 0.14764918 0.58131206
vt 0.14768423 0.5818608
vt 0.14768526 0.5818622
vt 0.14768526 0.5818608
vt 0.14768423 0.5818622
vt 0.14768526 0.5818608
vt 0.14768627 0.5818622
vt 0.14768627 0.5818608
vt 0.14768526 0.5818622
vt 0.14768526 0.5818608
vt 0.14768474 0.58185947
vt 0.14768423 0.5818608
vt 0.14768627 0.5818608
vt 0.14768577 0.58185947
vt 0.14768526 0.5818608
vt 0.14768423 0.5818622
vt 0.14768474 0.5818635
vt 0.14768526 0.5818622
vt 0.14768526 0.5818622
vt 0.14768577 0.5818635
vt 0.14768627 0.5818622
vt 0.14750765 0.58116347
vt 0.14752087 0.58118105
vt 0.14752087 0.58116347
vt 0.14750765 0.58118105
vt 0.14752087 0.58116347
vt 0.14753407 0.58118105
vt 0.14753407 0.58116347
vt 0.14752087 0.58118105
vt 0.14752087 0.58116347
vt 0.14751427 0.5811459
vt 0.14750765 0.58116347
vt 0.14753407 0.58116347
vt 0.14752747 0.5811459
vt 0.14752087 0.58116347
vt 0.14750765 0.58118105
vt 0.14751427 0.5811987
vt 0.14752087 0.58118105
vt 0.14752087 0.58118105
vt 0.14752747 0.5811987
vt 0.14753407 0.58118105
vt 0.14768423 0.5818608
vt 0.14768526 0.5818622
vt 0.14768526 0.5818608
vt 0.14768423 0.5818622
vt 0.14768526 0.5818608
vt 0.14768627 0.5818622
vt 0.14768627 0.5818608
vt 0.14768526 0.5818622
vt 0.14768526 0.5818608
vt 0.14768474 0.58185947
vt 0.14768423 0.5818608
vt 0.14768627 0.5818608
vt 0.14768577 0.58185947
vt 0.14768526 0.5818608
vt 0.14768423 0.5818622
vt 0.14768474 0.5818635
vt 0.14768526 0.5818622
vt 0.14768526 0.5818622
vt 0.14768577 0.5818635
vt 0.14768627 0.5818622
vt 0.14768423 0.5818608
vt 0.14768526 0.5818622
vt 0.14768526 0.5818608
vt 0.14768423 0.5818622
vt 0.14768526 0.5818608
vt 0.14768627 0.5818622
vt 0.14768627 0.5818608
vt 0.14768526 0.5818622
vt 0.14768526 0.5818608
vt 0.14768474 0.58185947
vt 0.14768423 0.5818608
vt 0.14768627 0.5818608
vt 0.14768577 0.58185947
vt 0.14768526 0.5818608
vt 0.14768423 0.5818622
vt 0.14768474 0.5818635
vt 0.14768526 0.5818622
vt 0.14768526 0.5818622
vt 0.14768577 0.5818635
vt 0.14768627 0.5818622
vt 0.875 0.125
vt 1 0
vt 0.875 0
vt 1 0.125
vn 2.625165E-07 -1 3.2555783E-07
vn 2.625165E-07 -1 3.2555783E-07
vn 2.625165E-07 -1 3.2555783E-07
vn 2.625165E-07 -1 3.2555783E-07
vn 1 0 0
vn 1 0 0
vn 1 0 0
vn 1 0 0
vn 1 0 0
vn 1 0 0
vn 1 0 0
vn 1 0 0
vn 1 0 0
vn 1 0 0
vn 1 0 0
vn 1 0 0
vn -1 0 0
vn -1 0 0
vn -1 0 0
vn -1 0 0
vn -1 0 0
vn -1 0 0
vn -1 0 0
vn -1 -1.2797958E-07 0
vn -1 -1.2797958E-07 0
vn -1 -1.2797958E-07 0
vn -1 -1.2797958E-07 0
vn -1 -1.2797958E-07 0
vn -1 0 0
vn -1 0 0
vn -1 0 0
vn -1 0 0
vn 1 0 0
vn 1 0 0
vn 1 0 0
vn 1 0 0
vn -0 0 1
vn -0 0 1
vn -0 0 1
vn -0 0 1
vn -0 0 1
vn -0 0 1
vn -0 0 1
vn -0 0 1
vn -0 0 1
vn -0 0 1
vn -0 0 1
vn -0 0 1
vn -2.430399E-07 0 1
vn -2.430399E-07 0 1
vn -2.430399E-07 0 1
vn -2.430399E-07 0 1
vn 1 0 0
vn 1 0 0
vn 1 0 0
vn 1 0 0
vn 1 0 0
vn 1 0 0
vn 1 0 0
vn 1 0 0
vn 1 -1.4154932E-07 0
vn 1 -1.4154932E-07 0
vn 1 -1.4154932E-07 0
vn 1 -1.4154932E-07 0
vn -1 1.616636E-07 0
vn -1 1.616636E-07 0
vn -1 1.616636E-07 0
vn -1 1.616636E-07 0
vn -1 0 0
vn -1 0 0
vn -1 0 0
vn -1 0 0
vn -1 0 0
vn -1 0 0
vn -1 0 0
vn -1 0 0
vn -0 1 0
vn -0 1 0
vn -0 1 0
vn -0 1 0
vn -0 1 0
vn -0 1 0
vn -0 1 0
vn -0 1 0
vn -0 1 0
vn -0 1 0
vn -0 1 0
vn -0 1 0
vn -0 1 0
vn -0 1 0
vn -0 1 0
vn -0 1 0
vn 0.71471494 0.14393897 0.6844445
vn 1 0 0
vn 0.7071068 0 0.7071068
vn 1 0 0
vn 0.72063994 0.4417723 0.53433645
vn 0.72063994 0.4417723 0.53433645
vn 1 8.848207E-07 0
vn 0.7232651 0.6593532 0.20528279
vn 0.72063994 0.4417723 0.53433645
vn 1 7.878615E-07 0
vn 0.72326493 0.6593534 -0.20528285
vn 1 7.8786275E-07 0
vn 1 4.457455E-07 0
vn 0.72063994 0.44177216 -0.53433657
vn 1 -4.5375566E-07 0
vn 0.71471494 0.14393859 -0.6844445
vn 1 0 0
vn 0.7071068 -1.0666957E-07 -0.7071068
vn 0.72063994 0.44177216 -0.53433657
vn 0.71471494 0.14393897 0.6844445
vn -0 0 1
vn -0 0.20579882 0.97859436
vn 0.7071068 0 0.7071068
vn 0.72063994 0.4417723 0.53433645
vn 0.7232651 0.6593532 0.20528279
vn -7.6439545E-07 0.9547948 -0.2972657
vn 0.72326493 0.6593534 -0.20528285
vn 0.7232651 0.6593532 0.20528279
vn -3.8219773E-07 0.9547948 0.2972657
vn -3.79306E-07 0.63719285 0.77070445
vn -3.79306E-07 0.63719285 0.77070445
vn 0.72063994 0.4417723 0.53433645
vn -7.58612E-07 0.63719285 -0.77070445
vn 0.72326493 0.6593534 -0.20528285
vn -7.58612E-07 0.63719285 -0.77070445
vn 0.72063994 0.44177216 -0.53433657
vn -0 0.20579882 0.97859436
vn -3.79306E-07 0.63719285 0.77070445
vn 0.72063994 0.4417723 0.53433645
vn 0.71471494 0.14393859 -0.6844445
vn -0 -1.2149495E-07 -1
vn 0.7071068 -1.0666957E-07 -0.7071068
vn -0 0.20579876 -0.97859436
vn 0.72063994 0.44177216 -0.53433657
vn -0 0.20579876 -0.97859436
vn -7.58612E-07 0.63719285 -0.77070445
vn -0 1 0
vn 0.70711076 0.7071029 1.3238122E-05
vn 0.5351659 0.666712 0.5187414
vn -0 1 0
vn 0.70711076 0.7071029 1.3238122E-05
vn 1 -1.11743275E-05 1.8721428E-05
vn 0.70703405 -7.902108E-06 0.7071796
vn 0.44992107 0.11062221 0.88619065
vn 0.70711076 0.7071029 1.3238122E-05
vn 0.5351659 0.666712 0.5187414
vn -8.413303E-05 0.123874284 0.99229795
vn 0.5351659 0.666712 0.5187414
vn 0.44992107 0.11062221 0.88619065
vn 2.0067459E-05 0.2458404 0.9693104
vn 0.70703405 -7.902108E-06 0.7071796
vn -0.00018703756 0 1
vn 1 -1.1733056E-05 -1.8721448E-05
vn 1 -1.1733056E-05 -1.8721448E-05
vn 1 -1.1733056E-05 -1.8721448E-05
vn 0.70711094 0.70710266 -1.3238141E-05
vn 0.70711094 0.70710266 -1.3238141E-05
vn -0.714715 0.1439385 0.6844445
vn -1 0 0
vn -1 -8.7815204E-07 0
vn -0.714715 0.1439385 0.6844445
vn -0.7071068 0 0.7071068
vn -1 0 0
vn -0.714715 0.1439385 0.6844445
vn -0 0 1
vn -0.7071068 0 0.7071068
vn -0.714715 0.1439385 0.6844445
vn -0 0.20579906 0.9785943
vn -0 0 1
vn -0.72326565 0.6593525 0.20528299
vn -1 -1.7629723E-06 0
vn -1 -8.848203E-07 0
vn -0.72064054 0.44177085 0.5343368
vn -1 -8.7815204E-07 0
vn -0.714715 0.1439385 0.6844445
vn -0.72326535 0.6593529 -0.20528302
vn -1 -4.4241014E-07 0
vn -1 -4.4241014E-07 0
vn -0.72064006 0.4417713 -0.534337
vn -1 0 0
vn -0.7147148 0.14393854 -0.6844446
vn -1 0 0
vn -0.7071068 0 -0.7071068
vn -0.72326565 0.6593525 0.20528299
vn 9.3887104E-07 0.95479476 -0.2972658
vn 3.821963E-07 0.95479476 0.2972658
vn -0.72326535 0.6593529 -0.20528302
vn 3.793046E-07 0.637193 0.77070427
vn 9.317675E-07 0.6371924 -0.7707048
vn 9.317675E-07 0.6371924 -0.7707048
vn -0.72064006 0.4417713 -0.534337
vn -0 0.20579821 -0.9785945
vn 9.317675E-07 0.6371924 -0.7707048
vn -0.7147148 0.14393854 -0.6844446
vn -0 -1.2149495E-07 -1
vn -0.7071068 0 -0.7071068
vn -0 -1.2149495E-07 -1
vn -0.72064006 0.4417713 -0.534337
vn -0.7147148 0.14393854 -0.6844446
vn 3.793046E-07 0.637193 0.77070427
vn -0.72064054 0.44177085 0.5343368
vn -0.72326565 0.6593525 0.20528299
vn -0 0.20579906 0.9785943
vn -0.72064054 0.44177085 0.5343368
vn 3.793046E-07 0.637193 0.77070427
vn -0.714715 0.1439385 0.6844445
vn -0 1 0
vn -0.70711094 0.70710266 1.3577564E-05
vn -0 1 0
vn -0.5351659 0.6667118 0.51874167
vn -0.70711094 0.70710266 1.3577564E-05
vn -0.44992098 0.11062212 0.88619065
vn -0.7070338 -8.297212E-06 0.7071798
vn -1 -1.1733044E-05 1.9201463E-05
vn -0.70711094 0.70710266 1.3577564E-05
vn -0.5351659 0.6667118 0.51874167
vn 8.4256906E-05 0.12387447 0.99229795
vn -0.5351659 0.6667118 0.51874167
vn -2.0016189E-05 0.24584077 0.9693103
vn -0.44992098 0.11062212 0.88619065
vn -0.7070338 -8.297212E-06 0.7071798
vn 0.00018723209 0 1
vn -1 -1.1174341E-05 -1.9201487E-05
vn -1 -1.1174341E-05 -1.9201487E-05
vn -1 -1.1174341E-05 -1.9201487E-05
vn -0.70711076 0.7071029 -1.3577579E-05
vn -0.70711076 0.7071029 -1.3577579E-05
vn -0 1 0
vn 0.70711094 0.70710266 -1.3238141E-05
vn 0.70711094 0.70710266 -1.3238141E-05
vn -0 1 0
vn -0 1 0
vn -0.70711076 0.7071029 -1.3577579E-05
vn -0 1 0
vn -0.70711076 0.7071029 -1.3577579E-05
vn -2.2230997E-06 0.8597255 -0.5107565
vn -1.4199899E-06 0.9999682 -0.007980674
vn -1.4199899E-06 0.9999682 -0.007980674
vn -2.2230997E-06 0.8597255 -0.5107565
vn -1.4199899E-06 0.9999682 -0.007980674
vn -4.217423E-06 0.50170755 0.8650373
vn -4.217423E-06 0.50170755 0.8650373
vn -1.4199899E-06 0.9999682 -0.007980674
vn -4.217423E-06 0.50170755 0.8650373
vn -1.2237381E-06 -0.50099355 0.8654511
vn -1.2237381E-06 -0.50099355 0.8654511
vn -4.217423E-06 0.50170755 0.8650373
vn -1.2237381E-06 -0.50099355 0.8654511
vn 5.400611E-06 -0.9999722 -0.007457642
vn 5.400611E-06 -0.9999722 -0.007457642
vn -1.2237381E-06 -0.50099355 0.8654511
vn 5.400611E-06 -0.9999722 -0.007457642
vn 4.3778405E-06 -0.8598763 -0.5105026
vn 4.3778405E-06 -0.8598763 -0.5105026
vn 5.400611E-06 -0.9999722 -0.007457642
vn -0.62840134 0.5749232 -0.52399915
vn -0.19729574 0.9802771 -0.011451635
vn -0.16589366 0.8434214 -0.5109987
vn -0.7355613 0.6773047 -0.014422389
vn -0.025337476 0.99963725 -0.009134594
vn -0.021736505 0.8592331 -0.51112235
vn -0.7355613 0.6773047 -0.014422389
vn -0.10056937 0.49294657 0.8642277
vn -0.19729574 0.9802771 -0.011451635
vn -0.3545333 0.32815152 0.87556994
vn -0.013547905 0.50272745 0.8643388
vn -0.025337476 0.99963725 -0.009134594
vn -0.3545333 0.32815152 0.87556994
vn 0.1187728 -0.46708134 0.876201
vn -0.10056937 0.49294657 0.8642277
vn 0.33358824 -0.30475557 0.89210033
vn 0.014896119 -0.49998233 0.8659075
vn -0.013547905 0.50272745 0.8643388
vn -0.5122222 0.10178655 0.85280013
vn 0.46103576 -0.09673854 0.88209283
vn -0.51723987 0.04558238 0.85462576
vn 0.48286283 -0.019179722 0.87548596
vn 0.33358824 -0.30475557 0.89210033
vn 0.24423406 -0.9697041 -0.0048750485
vn 0.1187728 -0.46708134 0.876201
vn 0.73883855 -0.6738716 -0.0038291502
vn 0.030516388 -0.99951744 -0.0057983915
vn 0.014896119 -0.49998233 0.8659075
vn 0.46103576 -0.09673854 0.88209283
vn 0.97915363 -0.2030725 -0.0044440944
vn 0.48286283 -0.019179722 0.87548596
vn 0.99901116 -0.04414235 -0.0053129545
vn 0.73883855 -0.6738716 -0.0038291502
vn 0.20670862 -0.82159734 -0.5312715
vn 0.24423406 -0.9697041 -0.0048750485
vn 0.60420895 -0.55077064 -0.57583266
vn 0.025572637 -0.8607185 -0.5084385
vn 0.030516388 -0.99951744 -0.0057983915
vn 0.97915363 -0.2030725 -0.0044440944
vn 0.812233 -0.16832882 -0.55851865
vn 0.8380722 -0.037034243 -0.5443009
vn 0.99901116 -0.04414235 -0.0053129545
vn -0.98147315 0.19128379 -0.011001061
vn -0.876609 0.07785911 -0.47486272
vn -0.9962578 0.08592928 -0.0093068415
vn -0.86659986 0.16372243 -0.47138065
vn -0.7355613 0.6773047 -0.014422389
vn -0.62840134 0.5749232 -0.52399915
vn -0.5122222 0.10178655 0.85280013
vn -0.9962578 0.08592928 -0.0093068415
vn -0.51723987 0.04558238 0.85462576
vn -0.98147315 0.19128379 -0.011001061
vn -0.3545333 0.32815152 0.87556994
vn -0.7355613 0.6773047 -0.014422389
vn -0.8745512 -0.017294314 -0.4846248
vn -0.99990463 -0.012251119 0.0063779033
vn -0.8745512 -0.017294314 -0.4846248
vn -0.99990463 -0.012251119 0.0063779033
vn -0.99990463 -0.012251119 0.0063779033
vn -0.50266224 -0.0050023226 0.86446846
vn -0.99990463 -0.012251119 0.0063779033
vn -0.50266224 -0.0050023226 0.86446846
vn -0.50266224 -0.0050023226 0.86446846
vn 0.5005362 -0.0052899523 0.86569947
vn -0.50266224 -0.0050023226 0.86446846
vn 0.5005362 -0.0052899523 0.86569947
vn 0.5005362 -0.0052899523 0.86569947
vn 0.99995875 -0.0050290897 -0.007569159
vn 0.5005362 -0.0052899523 0.86569947
vn 0.99995875 -0.0050290897 -0.007569159
vn 0.99995875 -0.0050290897 -0.007569159
vn 0.85963917 -0.0041262875 -0.5108851
vn 0.99995875 -0.0050290897 -0.007569159
vn 0.85963917 -0.0041262875 -0.5108851
vn 1 0 0
vn 1 0 0
vn 1 0 0
vn 1 0 0
vn 0.0012070163 0.010220759 0.9999471
vn 0.0012070134 0.0076471223 0.9999701
vn 0.0012070163 0.010220759 0.9999471
vn 0.0012070134 0.0076471223 0.9999701
vn -0.001309167 0.010220769 0.99994695
vn -0.001309167 0.010220769 0.99994695
vn -0.001309164 0.0076471316 0.99996996
vn -0.001309164 0.0076471316 0.99996996
vn -1 0 0
vn -1 0 0
vn -1 0 0
vn -1 0 0
vn -0 1 0
vn -0 1 0
vn -0 1 0
vn -0 1 0
vn 1 0 0
vn 1 0 0
vn 1 0 0
vn -0 0.9000864 0.4357115
vn -0 0.9000864 0.4357115
vn -0 0.9000864 0.4357115
vn -0 0.9000864 0.4357115
vn -1 0 0
vn -1 0 0
vn -1 0 0
vn -0 -0.7695287 0.63861233
vn -0 -0.7695287 0.63861233
vn -0 -0.7695287 0.63861233
vn -0 -0.7695287 0.63861233
vn -1.4797782E-05 -0.5352338 0.844704
vn -0.9999932 0.003704015 -5.6474946E-06
vn -0.8447105 -0.53522354 -2.7069893E-06
vn -2.3012373E-05 0.003704038 0.9999932
vn -0.8447105 -0.53522354 -2.7069893E-06
vn -2.301211E-05 0.0037041085 -0.9999932
vn -1.5075886E-05 -0.5352313 -0.8447056
vn -0.9999932 0.003704015 -5.6474946E-06
vn -1.5075886E-05 -0.5352313 -0.8447056
vn 0.9999932 0.0037040426 -5.732049E-06
vn 0.84470177 -0.53523725 -3.884038E-06
vn -2.301211E-05 0.0037041085 -0.9999932
vn -2.3012373E-05 0.003704038 0.9999932
vn 0.84470177 -0.53523725 -3.884038E-06
vn 0.9999932 0.0037040426 -5.732049E-06
vn -1.4797782E-05 -0.5352338 0.844704
vn -1.4797782E-05 -0.5352338 0.844704
vn -0.53144944 -0.84709 2.5312104E-07
vn -4.9105593E-06 -0.8470915 0.53144705
vn -0.8447105 -0.53522354 -2.7069893E-06
vn -0.8447105 -0.53522354 -2.7069893E-06
vn -5.349294E-06 -0.8470913 -0.5314474
vn -0.53144944 -0.84709 2.5312104E-07
vn -1.5075886E-05 -0.5352313 -0.8447056
vn -1.5075886E-05 -0.5352313 -0.8447056
vn 0.5314419 -0.8470948 -1.5356088E-06
vn -5.349294E-06 -0.8470913 -0.5314474
vn 0.84470177 -0.53523725 -3.884038E-06
vn -4.9105593E-06 -0.8470915 0.53144705
vn 0.84470177 -0.53523725 -3.884038E-06
vn -1.4797782E-05 -0.5352338 0.844704
vn 0.5314419 -0.8470948 -1.5356088E-06
vn 0.033733383 0.31265724 0.94926685
vn 0.9546818 0.2969301 -0.020377537
vn 0.9546818 0.2969301 -0.020377537
vn 0.033733383 0.31265724 0.94926685
vn 0.0102086235 0.14244603 -0.98974997
vn 0.9546818 0.2969301 -0.020377537
vn 0.9546818 0.2969301 -0.020377537
vn 0.0102086235 0.14244603 -0.98974997
vn -0.9378888 0.3468949 -0.0053459965
vn 0.0102086235 0.14244603 -0.98974997
vn 0.0102086235 0.14244603 -0.98974997
vn -0.9378888 0.3468949 -0.0053459965
vn 0.033733383 0.31265724 0.94926685
vn -0.9378888 0.3468949 -0.0053459965
vn -0.9378888 0.3468949 -0.0053459965
vn 0.033733383 0.31265724 0.94926685
vn 0.033733383 0.31265724 0.94926685
vn -0 1 0
vn -0 1 0
vn -0 1 0
vn -0 1 0
vn -0 0 1
vn -0 0 1
vn -0 0 1
vn -0 0 1
vn -1 0 0
vn -1 0 0
vn -1 0 0
vn -1 0 0
vn -1 0 0
vn -1 0 0
vn 1 0 0
vn 1 0 0
vn 1 0 0
vn 1 0 0
vn 1 0 0
vn 1 0 0
vn -0 -0.62064695 0.78409016
vn -0 -0.62064695 0.78409016
vn -0 -0.62064695 0.78409016
vn -0 -0.62064695 0.78409016
vn 0.65185326 0.38752955 0.65184987
vn 0.65185326 0.38752955 0.65184987
vn 0.65185326 0.38752955 0.65184987
vn 0.65185326 0.38752955 0.65184987
vn -0.7017891 -0.122416906 0.7017879
vn -0.7017891 -0.122416906 0.7017879
vn -0.7017891 -0.122416906 0.7017879
vn -0.7017891 -0.122416906 0.7017879
vn -0.5871564 -0.5572232 -0.58715385
vn -0.5871564 -0.5572232 -0.58715385
vn -0.5871564 -0.5572232 -0.58715385
vn -0.5871564 -0.5572232 -0.58715385
vn -0.67484796 0.2986026 0.6748457
vn -0.67484796 0.2986026 0.6748457
vn -0.67484796 0.2986026 0.6748457
vn -0.67484796 0.2986026 0.6748457
vn 0.7041499 -0.09142031 0.7041415
vn 0.7041499 -0.09142031 0.7041415
vn 0.7041499 -0.09142031 0.7041415
vn 0.7041499 -0.09142031 0.7041415
vn 0.63259804 -0.4468228 -0.6325893
vn 0.63259804 -0.4468228 -0.6325893
vn 0.63259804 -0.4468228 -0.6325893
vn 0.63259804 -0.4468228 -0.6325893
vn 0.6518502 0.38752902 -0.65185314
vn 0.6518502 0.38752902 -0.65185314
vn 0.6518502 0.38752902 -0.65185314
vn 0.6518502 0.38752902 -0.65185314
vn 0.7017922 -0.12241546 0.7017851
vn 0.7017922 -0.12241546 0.7017851
vn 0.7017922 -0.12241546 0.7017851
vn 0.7017922 -0.12241546 0.7017851
vn -0.58715206 -0.55722415 0.5871574
vn -0.58715206 -0.55722415 0.5871574
vn -0.58715206 -0.55722415 0.5871574
vn -0.58715206 -0.55722415 0.5871574
vn -0.67484486 0.2986025 -0.6748489
vn -0.67484486 0.2986025 -0.6748489
vn -0.67484486 0.2986025 -0.6748489
vn -0.67484486 0.2986025 -0.6748489
vn -0.7041449 -0.091418795 0.70414674
vn -0.7041449 -0.091418795 0.70414674
vn -0.7041449 -0.091418795 0.70414674
vn -0.7041449 -0.091418795 0.70414674
vn 0.6325925 -0.44682223 0.6325952
vn 0.6325925 -0.44682223 0.6325952
vn 0.6325925 -0.44682223 0.6325952
vn 0.6325925 -0.44682223 0.6325952
vn -0 1 0
vn -0 1 0
vn -0 1 0
vn -0 1 0
vn -0 0 1
vn -0 0 1
vn -0 0 1
vn -0 0 1
vn -1 2.0739003E-06 1.2678512E-07
vn -1 2.0739003E-06 1.2678512E-07
vn -1 2.0739003E-06 1.2678512E-07
vn -1 2.0739003E-06 1.2678512E-07
vn 1 0 0
vn 1 0 0
vn 1 0 0
vn 1 0 0
vn -0.698103 0.15907349 0.6981031
vn -0.698103 0.15907349 0.6981031
vn -0.698103 0.15907349 0.6981031
vn -0.698103 0.15907349 0.6981031
vn 0.7063188 -0.047223806 0.706317
vn 0.7063188 -0.047223806 0.706317
vn 0.7063188 -0.047223806 0.706317
vn 0.7063188 -0.047223806 0.706317
vn 0.68481946 -0.24910042 -0.6848148
vn 0.68481946 -0.24910042 -0.6848148
vn 0.68481946 -0.24910042 -0.6848148
vn 0.68481946 -0.24910042 -0.6848148
vn 0.6981054 0.15907218 0.698101
vn 0.6981054 0.15907218 0.698101
vn 0.6981054 0.15907218 0.698101
vn 0.6981054 0.15907218 0.698101
vn -0.7063172 -0.047222834 0.7063187
vn -0.7063172 -0.047222834 0.7063187
vn -0.7063172 -0.047222834 0.7063187
vn -0.7063172 -0.047222834 0.7063187
vn -0.68481916 -0.24910107 -0.6848149
vn -0.68481916 -0.24910107 -0.6848149
vn -0.68481916 -0.24910107 -0.6848149
vn -0.68481916 -0.24910107 -0.6848149
vn 0.6981016 -0.15907353 0.6981045
vn 0.6981016 -0.15907353 0.6981045
vn 0.6981016 -0.15907353 0.6981045
vn 0.6981016 -0.15907353 0.6981045
vn 0.7063173 0.04722438 -0.7063185
vn 0.7063173 0.04722438 -0.7063185
vn 0.7063173 0.04722438 -0.7063185
vn 0.7063173 0.04722438 -0.7063185
vn -0.6848126 0.2491003 -0.68482167
vn -0.6848126 0.2491003 -0.68482167
vn -0.6848126 0.2491003 -0.68482167
vn -0.6848126 0.2491003 -0.68482167
vn 0.6980997 0.15907425 -0.6981062
vn 0.6980997 0.15907425 -0.6981062
vn 0.6980997 0.15907425 -0.6981062
vn 0.6980997 0.15907425 -0.6981062
vn 0.7063153 -0.047224812 0.70632046
vn 0.7063153 -0.047224812 0.70632046
vn 0.7063153 -0.047224812 0.70632046
vn 0.7063153 -0.047224812 0.70632046
vn -0.6848153 -0.24910037 0.68481904
vn -0.6848153 -0.24910037 0.68481904
vn -0.6848153 -0.24910037 0.68481904
vn -0.6848153 -0.24910037 0.68481904
vn -0.65508914 0.37645727 0.65508646
vn -0.65508914 0.37645727 0.65508646
vn -0.65508914 0.37645727 0.65508646
vn -0.65508914 0.37645727 0.65508646
vn 0.7021334 -0.11839148 0.7021341
vn 0.7021334 -0.11839148 0.7021341
vn 0.7021334 -0.11839148 0.7021341
vn 0.7021334 -0.11839148 0.7021341
vn 0.593232 -0.5442018 -0.5932287
vn 0.593232 -0.5442018 -0.5932287
vn 0.593232 -0.5442018 -0.5932287
vn 0.593232 -0.5442018 -0.5932287
vn 0.6763438 0.29176432 0.6763378
vn 0.6763438 0.29176432 0.6763378
vn 0.6763438 0.29176432 0.6763378
vn 0.6763438 0.29176432 0.6763378
vn -0.704292 -0.089142546 0.70429146
vn -0.704292 -0.089142546 0.70429146
vn -0.704292 -0.089142546 0.70429146
vn -0.704292 -0.089142546 0.70429146
vn -0.63574344 -0.4377943 -0.63574094
vn -0.63574344 -0.4377943 -0.63574094
vn -0.63574344 -0.4377943 -0.63574094
vn -0.63574344 -0.4377943 -0.63574094
vn -0.65508723 0.3764569 -0.6550886
vn -0.65508723 0.3764569 -0.6550886
vn -0.65508723 0.3764569 -0.6550886
vn -0.65508723 0.3764569 -0.6550886
vn -0.70213693 -0.1183882 0.7021311
vn -0.70213693 -0.1183882 0.7021311
vn -0.70213693 -0.1183882 0.7021311
vn -0.70213693 -0.1183882 0.7021311
vn 0.59322727 -0.5442027 0.5932326
vn 0.59322727 -0.5442027 0.5932326
vn 0.59322727 -0.5442027 0.5932326
vn 0.59322727 -0.5442027 0.5932326
vn 0.6763391 0.2917657 -0.67634183
vn 0.6763391 0.2917657 -0.67634183
vn 0.6763391 0.2917657 -0.67634183
vn 0.6763391 0.2917657 -0.67634183
vn 0.70429105 -0.089150086 0.7042914
vn 0.70429105 -0.089150086 0.7042914
vn 0.70429105 -0.089150086 0.7042914
vn 0.70429105 -0.089150086 0.7042914
vn -0.6357413 -0.43779492 0.6357426
vn -0.6357413 -0.43779492 0.6357426
vn -0.6357413 -0.43779492 0.6357426
vn -0.6357413 -0.43779492 0.6357426
vn -0 -1 0
vn -0 -1 0
vn -0 -1 0
vn -0 -1 0
vn -1 0 0
vn -1 0 0
vn -1 0 0
vn -1 0 0
vn -0.61089563 0.79171115 0
vn -0.61089563 0.79171115 0
vn 0.99805486 0.06234212 0
vn 0.6953847 0.7186377 0
vn 0.6953847 0.7186377 0
vn 0.99805486 0.06234212 0
vn 0.68108094 0.73220813 0
vn 0.5938048 0.8046092 0
vn 0.68108094 0.73220813 0
vn 0.5938048 0.8046092 0
vn 1.8972538E-07 0 1
vn 1.8972538E-07 0 1
vn 1.8972538E-07 0 1
vn 1.8972538E-07 0 1
vn -5.125724E-07 0 1
vn -5.125724E-07 0 1
vn -5.125724E-07 0 1
vn 0.6953847 0.7186377 0
vn 0.5938048 0.8046092 0
vn 0.6953847 0.7186377 0
vn 0.5938048 0.8046092 0
vn 0.68108094 0.73220813 0
vn -0.61089563 0.79171115 0
vn 0.68108094 0.73220813 0
vn -0.61089563 0.79171115 0
vn 1 2.4280164E-06 0
vn 1 2.4280164E-06 0
vn 1 2.4280164E-06 0
vn 1 2.4280164E-06 0
vn -0.99632543 0.08564892 0
vn -0.69643307 0.71762174 0
vn -0.99632543 0.08564892 0
vn -0.69643307 0.71762174 0
vn -0.68108094 0.73220813 0
vn -0.60433 0.79673415 0
vn -0.60433 0.79673415 0
vn -0.68108094 0.73220813 0
vn 1 0 0
vn 0.6108954 0.79171133 0
vn 1 0 0
vn 0.6108954 0.79171133 0
vn -0 0 1
vn -0 0 1
vn -0 0 1
vn -0 0 1
vn -2.6547247E-07 0 1
vn -2.6547247E-07 0 1
vn -2.6547247E-07 0 1
vn -2.6547247E-07 0 1
vn -2.6547247E-07 0 1
vn -0.69643307 0.71762174 0
vn -0.60433 0.79673415 0
vn -0.60433 0.79673415 0
vn -0.69643307 0.71762174 0
vn -0.68108094 0.73220813 0
vn 0.6108954 0.79171133 0
vn 0.6108954 0.79171133 0
vn -0.68108094 0.73220813 0
vn -0.041513108 0.76821995 0.63883865
vn 0.47877404 -0.2850679 0.83036846
vn -0.47877234 0.28506675 0.83036983
vn 0.6951677 0.3295898 0.6388368
vn -0.47877234 0.28506675 0.83036983
vn 0.041513916 -0.7682203 0.6388382
vn -0.69516563 -0.32959086 0.6388386
vn 0.47877404 -0.2850679 0.83036846
vn -0.47877234 0.28506675 0.83036983
vn -0.7441128 0.4430536 0.49999973
vn -0.041513108 0.76821995 0.63883865
vn -0.69516563 -0.32959086 0.6388386
vn -0.7441128 0.4430536 0.49999973
vn -0.47877234 0.28506675 0.83036983
vn 0.6951677 0.3295898 0.6388368
vn 0.7441144 -0.44305474 0.49999624
vn 0.47877404 -0.2850679 0.83036846
vn 0.47877404 -0.2850679 0.83036846
vn 0.7441144 -0.44305474 0.49999624
vn 0.041513916 -0.7682203 0.6388382
vn -0.5504699 0.53746194 0.6388408
vn 0.5453956 0.11415114 0.8303693
vn -0.54539293 -0.11415639 0.83037037
vn 0.28871968 0.7131087 0.6388403
vn -0.54539293 -0.11415639 0.83037037
vn 0.55047184 -0.537466 0.6388358
vn -0.28871757 -0.7131126 0.6388369
vn 0.5453956 0.11415114 0.8303693
vn -0.54539293 -0.11415639 0.83037037
vn -0.84765756 -0.17742087 0.4999985
vn -0.5504699 0.53746194 0.6388408
vn -0.28871757 -0.7131126 0.6388369
vn -0.84765756 -0.17742087 0.4999985
vn -0.54539293 -0.11415639 0.83037037
vn 0.28871968 0.7131087 0.6388403
vn 0.84765756 0.17741713 0.49999997
vn 0.5453956 0.11415114 0.8303693
vn 0.5453956 0.11415114 0.8303693
vn 0.84765756 0.17741713 0.49999997
vn 0.55047184 -0.537466 0.6388358
vn -0.75655115 -0.13969879 0.63883847
vn 0.22130594 0.5113805 0.8303696
vn -0.2213058 -0.5113775 0.8303715
vn -0.4160334 0.6471511 0.6388362
vn -0.2213058 -0.5113775 0.8303715
vn 0.7565523 0.1396999 0.6388369
vn 0.41603208 -0.6471487 0.6388395
vn 0.22130594 0.5113805 0.8303696
vn -0.2213058 -0.5113775 0.8303715
vn -0.343956 -0.79479 0.50000316
vn -0.75655115 -0.13969879 0.63883847
vn 0.41603208 -0.6471487 0.6388395
vn -0.343956 -0.79479 0.50000316
vn -0.2213058 -0.5113775 0.8303715
vn -0.4160334 0.6471511 0.6388362
vn 0.3439565 0.7947927 0.49999857
vn 0.22130594 0.5113805 0.8303696
vn 0.22130594 0.5113805 0.8303696
vn 0.3439565 0.7947927 0.49999857
vn 0.7565523 0.1396999 0.6388369
vn -0.5504706 0.53746414 0.63883835
vn 0.5453936 0.114154294 0.83037025
vn -0.5453919 -0.114154145 0.8303713
vn 0.28871766 0.7131114 0.63883823
vn -0.5453919 -0.114154145 0.8303713
vn 0.55047023 -0.5374646 0.63883835
vn -0.28871557 -0.7131099 0.63884085
vn 0.5453936 0.114154294 0.83037025
vn -0.5453919 -0.114154145 0.8303713
vn -0.84765565 -0.17742069 0.50000185
vn -0.5504706 0.53746414 0.63883835
vn -0.28871557 -0.7131099 0.63884085
vn -0.84765565 -0.17742069 0.50000185
vn -0.5453919 -0.114154145 0.8303713
vn 0.28871766 0.7131114 0.63883823
vn 0.8476564 0.1774191 0.5000011
vn 0.5453936 0.114154294 0.83037025
vn 0.5453936 0.114154294 0.83037025
vn 0.8476564 0.1774191 0.5000011
vn 0.55047023 -0.5374646 0.63883835
vn -0.5504706 0.53746414 0.63883835
vn 0.5453936 0.114154294 0.83037025
vn -0.5453919 -0.114154145 0.8303713
vn 0.28871766 0.7131114 0.63883823
vn -0.5453919 -0.114154145 0.8303713
vn 0.55047023 -0.5374646 0.63883835
vn -0.28871557 -0.7131099 0.63884085
vn 0.5453936 0.114154294 0.83037025
vn -0.5453919 -0.114154145 0.8303713
vn -0.84765565 -0.17742069 0.50000185
vn -0.5504706 0.53746414 0.63883835
vn -0.28871557 -0.7131099 0.63884085
vn -0.84765565 -0.17742069 0.50000185
vn -0.5453919 -0.114154145 0.8303713
vn 0.28871766 0.7131114 0.63883823
vn 0.8476564 0.1774191 0.5000011
vn 0.5453936 0.114154294 0.83037025
vn 0.5453936 0.114154294 0.83037025
vn 0.8476564 0.1774191 0.5000011
vn 0.55047023 -0.5374646 0.63883835
vn 4.5085372E-07 0 1
vn 4.5085372E-07 0 1
vn 4.5085372E-07 0 1
vn 4.5085372E-07 0 1
g mesh 4_0
f 3/3/3 2/2/2 1/1/1
f 2/2/2 4/4/4 1/1/1
f 7/7/7 6/6/6 5/5/5
f 6/6/6 8/8/8 5/5/5
f 5/5/5 8/8/8 9/9/9
f 5/5/5 9/9/9 10/10/10
f 10/10/10 11/11/11 5/5/5
f 12/12/12 6/6/6 7/7/7
f 13/13/13 12/12/12 7/7/7
f 14/14/14 12/12/12 13/13/13
f 14/14/14 13/13/13 15/15/15
f 15/15/15 16/16/16 14/14/14
f 19/19/19 18/18/18 17/17/17
f 17/17/17 20/20/20 19/19/19
f 17/17/17 21/21/21 20/20/20
f 20/20/20 21/21/21 22/22/22
f 21/21/21 23/23/23 22/22/22
f 22/22/22 23/23/23 24/24/24
f 23/23/23 25/25/25 24/24/24
f 24/24/24 25/25/25 26/26/26
f 24/24/24 26/26/26 27/27/27
f 27/27/27 28/28/28 24/24/24
f 31/31/31 30/30/30 29/29/29
f 30/30/30 32/32/32 29/29/29
f 35/35/35 34/34/34 33/33/33
f 34/34/34 36/36/36 33/33/33
f 39/39/39 38/38/38 37/37/37
f 38/38/38 40/40/40 37/37/37
f 43/43/43 42/42/42 41/41/41
f 42/42/42 44/44/44 41/41/41
f 47/47/47 46/46/46 45/45/45
f 46/46/46 48/48/48 45/45/45
f 51/51/51 50/50/50 49/49/49
f 50/50/50 52/52/52 49/49/49
f 55/55/55 54/54/54 53/53/53
f 54/54/54 56/56/56 53/53/53
f 59/59/59 58/58/58 57/57/57
f 58/58/58 60/60/60 57/57/57
f 63/63/63 62/62/62 61/61/61
f 62/62/62 64/64/64 61/61/61
f 67/67/67 66/66/66 65/65/65
f 66/66/66 68/68/68 65/65/65
f 71/71/71 70/70/70 69/69/69
f 70/70/70 72/72/72 69/69/69
f 75/75/75 74/74/74 73/73/73
f 74/74/74 76/76/76 73/73/73
f 79/79/79 78/78/78 77/77/77
f 78/78/78 80/80/80 77/77/77
f 83/83/83 82/82/82 81/81/81
f 82/82/82 84/84/84 81/81/81
f 87/87/87 86/86/86 85/85/85
f 86/86/86 88/88/88 85/85/85
f 91/91/91 90/90/90 89/89/89
f 90/90/90 92/92/92 89/89/89
f 95/95/95 94/94/94 93/93/93
f 94/94/94 96/96/96 93/93/93
f 93/93/93 96/96/96 97/97/97
f 96/96/96 99/99/99 98/98/98
f 101/101/101 99/99/99 100/100/100
f 99/99/99 102/102/102 100/100/100
f 103/103/103 100/100/100 102/102/102
f 104/104/104 103/103/103 102/102/102
f 104/104/104 105/105/105 103/103/103
f 105/105/105 106/106/106 103/103/103
f 105/105/105 107/107/107 106/106/106
f 107/107/107 109/109/109 108/108/108
f 109/109/109 110/110/110 108/108/108
f 107/107/107 108/108/108 111/111/111
f 114/114/114 113/113/113 112/112/112
f 113/113/113 115/115/115 112/112/112
f 112/112/112 116/116/116 114/114/114
f 119/119/119 118/118/118 117/117/117
f 118/118/118 121/121/121 120/120/120
f 120/120/120 121/121/121 122/122/122
f 124/124/124 120/120/120 123/123/123
f 118/118/118 126/126/126 125/125/125
f 126/126/126 128/128/128 127/127/127
f 131/131/131 130/130/130 129/129/129
f 134/134/134 133/133/133 132/132/132
f 133/133/133 135/135/135 132/132/132
f 136/136/136 132/132/132 135/135/135
f 138/138/138 136/136/136 137/137/137
f 141/141/141 140/140/140 139/139/139
f 143/143/143 142/142/142 139/139/139
f 146/146/146 145/145/145 144/144/144
f 144/144/144 147/147/147 146/146/146
f 147/147/147 148/148/148 146/146/146
f 151/151/151 150/150/150 149/149/149
f 150/150/150 152/152/152 149/149/149
f 153/153/153 151/151/151 149/149/149
f 154/154/154 153/153/153 149/149/149
f 157/157/157 156/156/156 155/155/155
f 155/155/155 158/158/158 157/157/157
f 155/155/155 159/159/159 158/158/158
f 162/162/162 161/161/161 160/160/160
f 165/165/165 164/164/164 163/163/163
f 168/168/168 167/167/167 166/166/166
f 171/171/171 170/170/170 169/169/169
f 174/174/174 173/173/173 172/172/172
f 173/173/173 175/175/175 172/172/172
f 173/173/173 176/176/176 175/175/175
f 176/176/176 177/177/177 175/175/175
f 172/172/172 178/178/178 174/174/174
f 178/178/178 179/179/179 174/174/174
f 180/180/180 179/179/179 178/178/178
f 181/181/181 180/180/180 178/178/178
f 182/182/182 180/180/180 181/181/181
f 183/183/183 182/182/182 181/181/181
f 184/184/184 182/182/182 183/183/183
f 185/185/185 184/184/184 183/183/183
f 188/188/188 187/187/187 186/186/186
f 187/187/187 189/189/189 186/186/186
f 188/188/188 186/186/186 190/190/190
f 189/189/189 187/187/187 191/191/191
f 193/193/193 189/189/189 192/192/192
f 193/193/193 195/195/195 194/194/194
f 194/194/194 197/197/197 196/196/196
f 199/199/199 198/198/198 196/196/196
f 201/201/201 200/200/200 194/194/194
f 204/204/204 203/203/203 202/202/202
f 207/207/207 206/206/206 205/205/205
f 206/206/206 208/208/208 205/205/205
f 211/211/211 210/210/210 209/209/209
f 213/213/213 212/212/212 209/209/209
f 216/216/216 215/215/215 214/214/214
f 214/214/214 217/217/217 216/216/216
f 214/214/214 218/218/218 217/217/217
f 221/221/221 220/220/220 219/219/219
f 220/220/220 222/222/222 219/219/219
f 222/222/222 223/223/223 219/219/219
f 223/223/223 224/224/224 219/219/219
f 227/227/227 226/226/226 225/225/225
f 225/225/225 228/228/228 227/227/227
f 228/228/228 229/229/229 227/227/227
f 232/232/232 231/231/231 230/230/230
f 231/231/231 233/233/233 230/230/230
f 236/236/236 235/235/235 234/234/234
f 235/235/235 237/237/237 234/234/234
f 240/240/240 239/239/239 238/238/238
f 239/239/239 241/241/241 238/238/238
f 244/244/244 243/243/243 242/242/242
f 243/243/243 245/245/245 242/242/242
f 248/248/248 247/247/247 246/246/246
f 247/247/247 249/249/249 246/246/246
f 252/252/252 251/251/251 250/250/250
f 251/251/251 253/253/253 250/250/250
f 256/256/256 255/255/255 254/254/254
f 255/255/255 257/257/257 254/254/254
f 260/260/260 259/259/259 258/258/258
f 259/259/259 261/261/261 258/258/258
f 262/262/262 259/259/259 260/260/260
f 263/263/263 262/262/262 260/260/260
f 266/266/266 265/265/265 264/264/264
f 265/265/265 267/267/267 264/264/264
f 268/268/268 265/265/265 266/266/266
f 269/269/269 268/268/268 266/266/266
f 272/272/272 271/271/271 270/270/270
f 271/271/271 273/273/273 270/270/270
f 274/274/274 271/271/271 272/272/272
f 275/275/275 274/274/274 272/272/272
f 270/270/270 273/273/273 276/276/276
f 273/273/273 277/277/277 276/276/276
f 278/278/278 276/276/276 277/277/277
f 279/279/279 278/278/278 277/277/277
f 282/282/282 281/281/281 280/280/280
f 281/281/281 283/283/283 280/280/280
f 284/284/284 281/281/281 282/282/282
f 285/285/285 284/284/284 282/282/282
f 280/280/280 283/283/283 286/286/286
f 283/283/283 287/287/287 286/286/286
f 288/288/288 286/286/286 287/287/287
f 289/289/289 288/288/288 287/287/287
f 292/292/292 291/291/291 290/290/290
f 291/291/291 293/293/293 290/290/290
f 294/294/294 291/291/291 292/292/292
f 295/295/295 294/294/294 292/292/292
f 290/290/290 293/293/293 296/296/296
f 293/293/293 297/297/297 296/296/296
f 296/296/296 297/297/297 298/298/298
f 299/299/299 296/296/296 298/298/298
f 302/302/302 301/301/301 300/300/300
f 301/301/301 303/303/303 300/300/300
f 304/304/304 300/300/300 303/303/303
f 305/305/305 304/304/304 303/303/303
f 308/308/308 307/307/307 306/306/306
f 307/307/307 309/309/309 306/306/306
f 310/310/310 306/306/306 309/309/309
f 311/311/311 310/310/310 309/309/309
f 314/314/314 313/313/313 312/312/312
f 313/313/313 315/315/315 312/312/312
f 318/318/318 317/317/317 316/316/316
f 317/317/317 319/319/319 316/316/316
f 322/322/322 321/321/321 320/320/320
f 321/321/321 323/323/323 320/320/320
f 326/326/326 325/325/325 324/324/324
f 325/325/325 327/327/327 324/324/324
f 330/330/330 329/329/329 328/328/328
f 329/329/329 331/331/331 328/328/328
f 334/334/334 333/333/333 332/332/332
f 333/333/333 335/335/335 332/332/332
f 338/338/338 337/337/337 336/336/336
f 337/337/337 339/339/339 336/336/336
f 340/340/340 338/338/338 336/336/336
f 341/341/341 340/340/340 336/336/336
f 340/340/340 341/341/341 342/342/342
f 337/337/337 342/342/342 339/339/339
f 341/341/341 343/343/343 342/342/342
f 342/342/342 343/343/343 339/339/339
f 346/346/346 345/345/345 344/344/344
f 345/345/345 347/347/347 344/344/344
f 350/350/350 349/349/349 348/348/348
f 349/349/349 351/351/351 348/348/348
f 354/354/354 353/353/353 352/352/352
f 357/357/357 356/356/356 355/355/355
f 356/356/356 358/358/358 355/355/355
f 361/361/361 360/360/360 359/359/359
f 364/364/364 363/363/363 362/362/362
f 363/363/363 365/365/365 362/362/362
f 368/368/368 367/367/367 366/366/366
f 367/367/367 369/369/369 366/366/366
f 372/372/372 371/371/371 370/370/370
f 371/371/371 373/373/373 370/370/370
f 376/376/376 375/375/375 374/374/374
f 375/375/375 377/377/377 374/374/374
f 380/380/380 379/379/379 378/378/378
f 379/379/379 381/381/381 378/378/378
f 384/384/384 383/383/383 382/382/382
f 383/383/383 385/385/385 382/382/382
f 388/388/388 387/387/387 386/386/386
f 387/387/387 389/389/389 386/386/386
f 392/392/392 391/391/391 390/390/390
f 391/391/391 393/393/393 390/390/390
f 396/396/396 395/395/395 394/394/394
f 395/395/395 397/397/397 394/394/394
f 400/400/400 399/399/399 398/398/398
f 399/399/399 401/401/401 398/398/398
f 404/404/404 403/403/403 402/402/402
f 403/403/403 405/405/405 402/402/402
f 408/408/408 407/407/407 406/406/406
f 407/407/407 409/409/409 406/406/406
f 412/412/412 411/411/411 410/410/410
f 411/411/411 414/414/414 413/413/413
f 417/417/417 416/416/416 415/415/415
f 416/416/416 418/418/418 415/415/415
f 421/421/421 420/420/420 419/419/419
f 420/420/420 422/422/422 419/419/419
f 425/425/425 424/424/424 423/423/423
f 424/424/424 426/426/426 423/423/423
f 423/423/423 426/426/426 427/427/427
f 426/426/426 428/428/428 427/427/427
f 431/431/431 430/430/430 429/429/429
f 430/430/430 432/432/432 429/429/429
f 430/430/430 433/433/433 432/432/432
f 433/433/433 434/434/434 432/432/432
f 437/437/437 436/436/436 435/435/435
f 436/436/436 438/438/438 435/435/435
f 441/441/441 440/440/440 439/439/439
f 440/440/440 442/442/442 439/439/439
f 445/445/445 444/444/444 443/443/443
f 444/444/444 446/446/446 443/443/443
f 449/449/449 448/448/448 447/447/447
f 448/448/448 450/450/450 447/447/447
f 453/453/453 452/452/452 451/451/451
f 452/452/452 454/454/454 451/451/451
f 457/457/457 456/456/456 455/455/455
f 456/456/456 458/458/458 455/455/455
f 461/461/461 460/460/460 459/459/459
f 460/460/460 462/462/462 459/459/459
f 465/465/465 464/464/464 463/463/463
f 464/464/464 466/466/466 463/463/463
f 469/469/469 468/468/468 467/467/467
f 468/468/468 470/470/470 467/467/467
f 473/473/473 472/472/472 471/471/471
f 472/472/472 474/474/474 471/471/471
f 477/477/477 476/476/476 475/475/475
f 476/476/476 478/478/478 475/475/475
f 481/481/481 480/480/480 479/479/479
f 480/480/480 482/482/482 479/479/479
f 485/485/485 484/484/484 483/483/483
f 484/484/484 486/486/486 483/483/483
f 489/489/489 488/488/488 487/487/487
f 488/488/488 490/490/490 487/487/487
f 493/493/493 492/492/492 491/491/491
f 492/492/492 494/494/494 491/491/491
f 497/497/497 496/496/496 495/495/495
f 496/496/496 498/498/498 495/495/495
f 501/501/501 500/500/500 499/499/499
f 500/500/500 502/502/502 499/499/499
f 505/505/505 504/504/504 503/503/503
f 504/504/504 506/506/506 503/503/503
f 509/509/509 508/508/508 507/507/507
f 508/508/508 510/510/510 507/507/507
f 513/513/513 512/512/512 511/511/511
f 512/512/512 514/514/514 511/511/511
f 517/517/517 516/516/516 515/515/515
f 516/516/516 518/518/518 515/515/515
f 521/521/521 520/520/520 519/519/519
f 520/520/520 522/522/522 519/519/519
f 525/525/525 524/524/524 523/523/523
f 524/524/524 526/526/526 523/523/523
f 529/529/529 528/528/528 527/527/527
f 528/528/528 530/530/530 527/527/527
f 533/533/533 532/532/532 531/531/531
f 532/532/532 534/534/534 531/531/531
f 537/537/537 536/536/536 535/535/535
f 536/536/536 538/538/538 535/535/535
f 541/541/541 540/540/540 539/539/539
f 540/540/540 542/542/542 539/539/539
f 545/545/545 544/544/544 543/543/543
f 544/544/544 546/546/546 543/543/543
f 549/549/549 548/548/548 547/547/547
f 548/548/548 550/550/550 547/547/547
f 553/553/553 552/552/552 551/551/551
f 552/552/552 554/554/554 551/551/551
f 557/557/557 556/556/556 555/555/555
f 556/556/556 558/558/558 555/555/555
f 561/561/561 560/560/560 559/559/559
f 560/560/560 562/562/562 559/559/559
f 565/565/565 564/564/564 563/563/563
f 564/564/564 566/566/566 563/563/563
f 569/569/569 568/568/568 567/567/567
f 568/568/568 570/570/570 567/567/567
f 573/573/573 572/572/572 571/571/571
f 572/572/572 574/574/574 571/571/571
f 577/577/577 576/576/576 575/575/575
f 576/576/576 578/578/578 575/575/575
f 581/581/581 580/580/580 579/579/579
f 580/580/580 582/582/582 579/579/579
f 585/585/585 584/584/584 583/583/583
f 584/584/584 586/586/586 583/583/583
f 589/589/589 588/588/588 587/587/587
f 588/588/588 590/590/590 587/587/587
f 593/593/593 592/592/592 591/591/591
f 592/592/592 594/594/594 591/591/591
f 597/597/597 596/596/596 595/595/595
f 596/596/596 598/598/598 595/595/595
f 601/601/601 600/600/600 599/599/599
f 600/600/600 602/602/602 599/599/599
f 605/605/605 604/604/604 603/603/603
f 604/604/604 606/606/606 603/603/603
f 607/607/607 604/604/604 605/605/605
f 608/608/608 607/607/607 605/605/605
f 611/611/611 610/610/610 609/609/609
f 610/610/610 612/612/612 609/609/609
f 615/615/615 614/614/614 613/613/613
f 614/614/614 616/616/616 613/613/613
f 619/619/619 618/618/618 617/617/617
f 618/618/618 620/620/620 617/617/617
f 617/617/617 620/620/620 621/621/621
f 622/622/622 617/617/617 621/621/621
f 621/621/621 623/623/623 622/622/622
f 626/626/626 625/625/625 624/624/624
f 625/625/625 627/627/627 624/624/624
f 630/630/630 629/629/629 628/628/628
f 629/629/629 631/631/631 628/628/628
f 634/634/634 633/633/633 632/632/632
f 633/633/633 635/635/635 632/632/632
f 638/638/638 637/637/637 636/636/636
f 637/637/637 639/639/639 636/636/636
f 642/642/642 641/641/641 640/640/640
f 641/641/641 643/643/643 640/640/640
f 646/646/646 645/645/645 644/644/644
f 645/645/645 647/647/647 644/644/644
f 650/650/650 649/649/649 648/648/648
f 649/649/649 651/651/651 648/648/648
f 654/654/654 653/653/653 652/652/652
f 652/652/652 655/655/655 654/654/654
f 655/655/655 656/656/656 654/654/654
f 659/659/659 658/658/658 657/657/657
f 658/658/658 660/660/660 657/657/657
f 663/663/663 662/662/662 661/661/661
f 662/662/662 664/664/664 661/661/661
f 667/667/667 666/666/666 665/665/665
f 666/666/666 668/668/668 665/665/665
f 671/671/671 670/670/670 669/669/669
f 670/670/670 672/672/672 669/669/669
f 675/675/675 674/674/674 673/673/673
f 678/678/678 677/677/677 676/676/676
f 681/681/681 680/680/680 679/679/679
f 684/684/684 683/683/683 682/682/682
f 687/687/687 686/686/686 685/685/685
f 686/686/686 688/688/688 685/685/685
f 691/691/691 690/690/690 689/689/689
f 690/690/690 692/692/692 689/689/689
f 695/695/695 694/694/694 693/693/693
f 698/698/698 697/697/697 696/696/696
f 701/701/701 700/700/700 699/699/699
f 704/704/704 703/703/703 702/702/702
f 707/707/707 706/706/706 705/705/705
f 706/706/706 708/708/708 705/705/705
f 711/711/711 710/710/710 709/709/709
f 710/710/710 712/712/712 709/709/709
f 715/715/715 714/714/714 713/713/713
f 718/718/718 717/717/717 716/716/716
f 721/721/721 720/720/720 719/719/719
f 724/724/724 723/723/723 722/722/722
f 727/727/727 726/726/726 725/725/725
f 726/726/726 728/728/728 725/725/725
f 731/731/731 730/730/730 729/729/729
f 730/730/730 732/732/732 729/729/729
f 735/735/735 734/734/734 733/733/733
f 738/738/738 737/737/737 736/736/736
f 741/741/741 740/740/740 739/739/739
f 744/744/744 743/743/743 742/742/742
f 747/747/747 746/746/746 745/745/745
f 746/746/746 748/748/748 745/745/745
f 751/751/751 750/750/750 749/749/749
f 750/750/750 752/752/752 749/749/749
f 755/755/755 754/754/754 753/753/753
f 758/758/758 757/757/757 756/756/756
f 761/761/761 760/760/760 759/759/759
f 764/764/764 763/763/763 762/762/762
g mesh 4_1
f 767/767/767 766/766/766 765/765/765
f 766/766/766 768/768/768 765/765/765
