g MSH_Elevator_DoorDown
v -0.7164202 0.85004306 -4.2769637
v -0.6558998 0.8356078 -4.4632263
v -0.55797607 0.8356078 -4.3920803
v -0.7164202 0.85004306 -4.2769637
v -0.77694046 0.8356078 -4.4632263
v -0.6558998 0.8356078 -4.4632263
v -0.7164202 0.85004306 -4.2769637
v -0.8748643 0.8356078 -4.3920803
v -0.77694046 0.8356078 -4.4632263
v -0.7164202 0.85004306 -4.2769637
v -0.91226786 0.8356078 -4.2769637
v -0.8748643 0.8356078 -4.3920803
v -0.7164202 0.85004306 -4.2769637
v -0.8748643 0.8356078 -4.1618476
v -0.91226786 0.8356078 -4.2769637
v -0.7164202 0.85004306 -4.2769637
v -0.7164201 0.8356078 -4.0907016
v -0.8748643 0.8356078 -4.1618476
v -0.7164202 0.85004306 -4.2769637
v -0.55797607 0.8356078 -4.1618476
v -0.7164201 0.8356078 -4.0907016
v -0.7164202 0.85004306 -4.2769637
v -0.5205725 0.8356078 -4.2769637
v -0.55797607 0.8356078 -4.1618476
v -0.7164202 0.85004306 -4.2769637
v -0.55797607 0.8356078 -4.3920803
v -0.5205725 0.8356078 -4.2769637
v 0.74852574 0.85004306 -4.2769637
v 0.80904615 0.8356078 -4.4632263
v 0.9069699 0.8356078 -4.3920803
v 0.74852574 0.85004306 -4.2769637
v 0.6880055 0.8356078 -4.4632263
v 0.80904615 0.8356078 -4.4632263
v 0.74852574 0.85004306 -4.2769637
v 0.59008163 0.8356078 -4.3920803
v 0.6880055 0.8356078 -4.4632263
v 0.74852574 0.85004306 -4.2769637
v 0.55267805 0.8356078 -4.2769637
v 0.59008163 0.8356078 -4.3920803
v 0.74852574 0.85004306 -4.2769637
v 0.59008163 0.8356078 -4.1618476
v 0.55267805 0.8356078 -4.2769637
v 0.74852574 0.85004306 -4.2769637
v 0.74852586 0.8356078 -4.0907016
v 0.59008163 0.8356078 -4.1618476
v 0.74852574 0.85004306 -4.2769637
v 0.9069699 0.8356078 -4.1618476
v 0.74852586 0.8356078 -4.0907016
v 0.74852574 0.85004306 -4.2769637
v 0.9443734 0.8356078 -4.2769637
v 0.9069699 0.8356078 -4.1618476
v 0.74852574 0.85004306 -4.2769637
v 0.9069699 0.8356078 -4.3920803
v 0.9443734 0.8356078 -4.2769637
v -0.61123496 -6.3323976E-05 -4.109698
v -0.7164201 -6.3323976E-05 -4.0907016
v -0.7164201 0.8356078 -4.0907016
v -0.55797607 0.8356078 -4.1618476
v -0.5579761 -6.3323976E-05 -4.1618476
v -1.2156534 0.82994473 -4.1616116
v 1.2156534 0.82994473 -4.1616116
v 1.2156534 -6.3323976E-05 -4.1616116
v -1.2156534 -6.3323976E-05 -4.1616116
v -1.2156534 0.82994473 -4.1616116
v -1.2156534 0.82994473 -4.3902555
v 1.2156534 0.82994473 -4.3902555
v 1.2156534 0.82994473 -4.1616116
v -0.8748643 -6.3323976E-05 -4.1618476
v -0.8748643 0.8356078 -4.1618476
v -0.821604 -6.3323976E-05 -4.109698
v -0.7164201 0.8356078 -4.0907016
v -0.7164201 -6.3323976E-05 -4.0907016
v 0.55267805 -6.3323976E-05 -4.2769637
v 0.55267805 0.8356078 -4.2769637
v 0.59008163 0.8356078 -4.1618476
v 0.59008163 -6.3323976E-05 -4.1618476
v 0.64334196 -6.3323976E-05 -4.109698
v 0.74852586 0.8356078 -4.0907016
v 0.74852586 -6.3323976E-05 -4.0907016
v 0.853711 -6.3323976E-05 -4.109698
v 0.74852586 -6.3323976E-05 -4.0907016
v 0.74852586 0.8356078 -4.0907016
v 0.9069699 0.8356078 -4.1618476
v 0.9069699 -6.3323976E-05 -4.1618476
v 0.9443734 0.8356078 -4.2769637
v 0.94437337 0.021009827 -4.2769637
vt 0.89844984 0.7518596
vt 0.8759189 0.7542353
vt 0.9186936 0.7542353
vt 0.89844984 0.7518596
vt 0.8759189 0.75423515
vt 0.9186936 0.75423515
vt 0.89844984 0.7518595
vt 0.8759189 0.7542351
vt 0.9186936 0.75423515
vt 0.89844984 0.7518595
vt 0.8759189 0.75423497
vt 0.9186936 0.7542351
vt 0.89844984 0.7518595
vt 0.8759189 0.7542352
vt 0.9186936 0.7542351
vt 0.89844984 0.7518596
vt 0.8759189 0.7542351
vt 0.9186936 0.7542353
vt 0.89844984 0.7518595
vt 0.8759189 0.7542353
vt 0.9186936 0.7542351
vt 0.89844984 0.7518595
vt 0.8759189 0.7542353
vt 0.9186936 0.7542353
vt 0.89844984 0.7518595
vt 0.8759189 0.75423515
vt 0.9186936 0.7542351
vt 0.89844984 0.7518596
vt 0.8759189 0.7542353
vt 0.9186936 0.7542353
vt 0.89844984 0.7518596
vt 0.8759189 0.75423515
vt 0.9186936 0.75423515
vt 0.89844984 0.7518595
vt 0.8759189 0.7542351
vt 0.9186936 0.75423515
vt 0.89844984 0.7518595
vt 0.8759189 0.75423497
vt 0.9186936 0.7542351
vt 0.89844984 0.7518595
vt 0.8759189 0.7542352
vt 0.9186936 0.7542351
vt 0.89844984 0.7518596
vt 0.8759189 0.7542351
vt 0.9186936 0.7542353
vt 0.89844984 0.7518595
vt 0.8759189 0.7542353
vt 0.9186936 0.7542351
vt 0.89844984 0.7518595
vt 0.8759189 0.7542353
vt 0.9186936 0.7542353
vt 0.89844984 0.7518595
vt 0.8759189 0.75423515
vt 0.9186936 0.7542351
vt 0.9178808 0.7513588
vt 0.9121551 0.7513588
vt 0.9121552 0.9120931
vt 0.92933214 0.9120931
vt 0.92933214 0.7513588
vt 0.76461023 0.9990314
vt 0.94502825 0.9990314
vt 0.94502825 0.750035
vt 0.76461023 0.750035
vt 0.0071836114 0.7540023
vt 0.0071836114 0.6239914
vt 0.24300367 0.62399143
vt 0.24300367 0.7540023
vt 0.8949779 0.7513588
vt 0.89497817 0.9120931
vt 0.9064294 0.7513588
vt 0.9121552 0.9120931
vt 0.9121551 0.7513588
vt 0.8835269 0.7513588
vt 0.8835269 0.9120931
vt 0.89497817 0.9120931
vt 0.8949779 0.7513588
vt 0.9064294 0.7513588
vt 0.9121552 0.9120931
vt 0.9121551 0.7513588
vt 0.9178808 0.7513588
vt 0.9121551 0.7513588
vt 0.9121552 0.9120931
vt 0.92933214 0.9120931
vt 0.92933214 0.7513588
vt 0.9407835 0.9120931
vt 0.9407834 0.7513588
vn -0 0.9999858 -0.0053328527
vn 0.022715067 0.9972946 -0.06990951
vn 0.05946878 0.9972946 -0.04320622
vn -0 0.9999858 -0.0053328527
vn -0.02271504 0.9972947 -0.06990921
vn 0.022715067 0.9972946 -0.06990951
vn -0 0.9999858 -0.0053328527
vn -0.059468735 0.9972946 -0.04320644
vn -0.02271504 0.9972947 -0.06990921
vn -0 0.9999858 -0.0053328527
vn -0.07350721 0.9972946 0
vn -0.059468735 0.9972946 -0.04320644
vn -0 0.9999858 -0.0053328527
vn -0.41595897 0.69174 0.590317
vn -0.07350721 0.9972946 0
vn -0 0.9999858 -0.0053328527
vn -4.2201617E-07 0.46177575 0.8869968
vn -0.41595897 0.69174 0.590317
vn -0 0.9999858 -0.0053328527
vn 0.4159624 0.6917402 0.5903141
vn -4.2201617E-07 0.46177575 0.8869968
vn -0 0.9999858 -0.0053328527
vn 0.07350723 0.9972946 0
vn 0.4159624 0.6917402 0.5903141
vn -0 0.9999858 -0.0053328527
vn 0.05946878 0.9972946 -0.04320622
vn 0.07350723 0.9972946 0
vn -0 0.9999858 -0.00533277
vn 0.022715094 0.9972946 -0.06990954
vn 0.05946878 0.9972946 -0.04320624
vn -0 0.9999858 -0.00533277
vn -0.02271504 0.9972947 -0.06990921
vn 0.022715094 0.9972946 -0.06990954
vn -0 0.9999858 -0.00533277
vn -0.059468716 0.9972946 -0.043206435
vn -0.02271504 0.9972947 -0.06990921
vn -0 0.9999858 -0.00533277
vn -0.47797886 0.86800987 0.13451755
vn -0.059468716 0.9972946 -0.043206435
vn -0 0.9999858 -0.00533277
vn -0.60262185 0.56258863 0.56598675
vn -0.47797886 0.86800987 0.13451755
vn -0 0.9999858 -0.00533277
vn -4.0861877E-07 0.46177563 0.8869968
vn -0.60262185 0.56258863 0.56598675
vn -0 0.9999858 -0.00533277
vn 0.60262465 0.5625887 0.5659837
vn -4.0861877E-07 0.46177563 0.8869968
vn -0 0.9999858 -0.00533277
vn 0.477979 0.86800987 0.13451713
vn 0.60262465 0.5625887 0.5659837
vn -0 0.9999858 -0.00533277
vn 0.05946878 0.9972946 -0.04320624
vn 0.477979 0.86800987 0.13451713
vn 0.44211763 0.010584978 0.89689463
vn 0.1777188 0 0.98408127
vn -4.2201617E-07 0.46177575 0.8869968
vn 0.4159624 0.6917402 0.5903141
vn 0.69962496 0 0.7145102
vn -0 0 1
vn -0 0 1
vn -0 0 1
vn -0 0 1
vn -0 1 0
vn -0 1 0
vn -0 1 0
vn -0 1 0
vn -0.69961554 0 0.7145195
vn -0.41595897 0.69174 0.590317
vn -0.44211435 0.010584748 0.8968962
vn -4.2201617E-07 0.46177575 0.8869968
vn -0.17772095 0 0.9840809
vn -0.9510561 0 0.30901808
vn -0.47797886 0.86800987 0.13451755
vn -0.60262185 0.56258863 0.56598675
vn -0.8498747 0 0.5269849
vn -0.44211417 0.010584761 0.89689624
vn -4.0861877E-07 0.46177563 0.8869968
vn -0.17772095 0 0.9840809
vn 0.44211745 0.010584986 0.89689463
vn 0.1777188 0 0.98408127
vn -4.0861877E-07 0.46177563 0.8869968
vn 0.60262465 0.5625887 0.5659837
vn 0.84987843 0 0.52697885
vn 0.477979 0.86800987 0.13451713
vn 0.9510565 0 0.3090171
g MSH_Elevator_DoorDown_0
f 3/3/3 2/2/2 1/1/1
f 6/6/6 5/5/5 4/4/4
f 9/9/9 8/8/8 7/7/7
f 12/12/12 11/11/11 10/10/10
f 15/15/15 14/14/14 13/13/13
f 18/18/18 17/17/17 16/16/16
f 21/21/21 20/20/20 19/19/19
f 24/24/24 23/23/23 22/22/22
f 27/27/27 26/26/26 25/25/25
f 30/30/30 29/29/29 28/28/28
f 33/33/33 32/32/32 31/31/31
f 36/36/36 35/35/35 34/34/34
f 39/39/39 38/38/38 37/37/37
f 42/42/42 41/41/41 40/40/40
f 45/45/45 44/44/44 43/43/43
f 48/48/48 47/47/47 46/46/46
f 51/51/51 50/50/50 49/49/49
f 54/54/54 53/53/53 52/52/52
f 57/57/57 56/56/56 55/55/55
f 58/58/58 57/57/57 55/55/55
f 59/59/59 58/58/58 55/55/55
f 62/62/62 61/61/61 60/60/60
f 63/63/63 62/62/62 60/60/60
f 66/66/66 65/65/65 64/64/64
f 67/67/67 66/66/66 64/64/64
f 70/70/70 69/69/69 68/68/68
f 70/70/70 71/71/71 69/69/69
f 71/71/71 70/70/70 72/72/72
f 75/75/75 74/74/74 73/73/73
f 76/76/76 75/75/75 73/73/73
f 77/77/77 75/75/75 76/76/76
f 77/77/77 78/78/78 75/75/75
f 78/78/78 77/77/77 79/79/79
f 82/82/82 81/81/81 80/80/80
f 83/83/83 82/82/82 80/80/80
f 84/84/84 83/83/83 80/80/80
f 85/85/85 83/83/83 84/84/84
f 86/86/86 85/85/85 84/84/84
