g MSH_Elevator_DoorUp
v 0.7437936 1.8098545 -4.192781
v 0.88509303 1.3767133 -4.1599693
v 0.7437936 1.3767133 -4.1262746
v 0.7437937 1.9896622 -4.2725816
v 0.7437937 1.1287764 -4.2725816
v 0.17867889 1.1287764 -4.2725816
v 0.17867889 1.9896622 -4.2725816
v -0.17867889 4.5723186 -4.2725816
v -0.17867889 3.7114327 -4.2725816
v -0.7437937 3.7114327 -4.2725816
v -0.7437937 4.5723186 -4.2725816
v -0.85771954 1.3767133 -4.1599693
v -0.7164201 1.3767133 -4.1262746
v -0.7164202 0.839832 -4.0907016
v -0.87486416 0.839832 -4.1618476
v -0.91226774 1.3767133 -4.2725816
v -0.91226774 0.839832 -4.2725816
v -0.6779328 0.70024824 -4.2644587
v -0.55797607 0.839832 -4.1618476
v -0.5205724 0.839832 -4.2725816
v -0.55797607 0.839832 -4.3920803
v -0.6926336 0.70024824 -4.309703
v -0.7164201 0.67345196 -4.2769637
v -0.7164201 0.70024824 -4.236496
v -0.7164202 0.839832 -4.0907016
v -0.55797607 0.839832 -4.1618476
v -0.6779328 0.70024824 -4.2644587
v -0.7164201 0.67345196 -4.2769637
v -0.7549075 0.70024824 -4.2644587
v -0.87486416 0.839832 -4.1618476
v -0.7164202 0.839832 -4.0907016
v -0.7164201 0.70024824 -4.236496
v -0.7164201 0.67345196 -4.2769637
v -0.7549075 0.70024824 -4.2644587
v -0.91226774 0.839832 -4.2725816
v -0.87486416 0.839832 -4.1618476
v -0.7402066 0.70024824 -4.309703
v -0.87486416 0.839832 -4.3920803
v -0.7164201 0.67345196 -4.2769637
v -0.61433136 1.8098545 -4.2725816
v -0.5205724 1.3767133 -4.2725816
v -0.57512075 1.3767133 -4.1599693
v -0.7164201 1.8098545 -4.192781
v -0.7164201 1.3767133 -4.1262746
v -0.61433136 3.191086 -4.2725816
v -0.61433136 1.8098545 -4.2725816
v -0.7164201 1.8098545 -4.192781
v -0.7164201 3.191086 -4.192781
v -0.61433136 4.5723176 -4.2725816
v -0.7164201 4.5723176 -4.192781
v -0.7164201 3.191086 -4.192781
v -0.7164201 1.8098545 -4.192781
v -0.8185088 1.8098545 -4.2725816
v -0.8185088 3.191086 -4.2725816
v -0.7164201 4.5723176 -4.192781
v -0.8185088 4.5723176 -4.2725816
v -0.85771954 1.3767133 -4.1599693
v -0.91226774 1.3767133 -4.2725816
v -0.8185088 1.8098545 -4.2725816
v -0.7164201 1.8098545 -4.192781
v -0.7164201 1.3767133 -4.1262746
v -0.55797607 0.839832 -4.1618476
v -0.5205724 1.3767133 -4.2725816
v -0.5205724 0.839832 -4.2725816
v -0.57512075 1.3767133 -4.1599693
v -0.7164202 0.839832 -4.0907016
v -0.7164201 1.3767133 -4.1262746
v -0.9039725 2.3360026 -4.2448134
v -0.9039725 2.4132507 -4.2448134
v -0.83255875 2.417182 -4.2448134
v -0.83255875 2.332071 -4.2448134
v -0.71695197 2.332071 -4.178771
v -0.71695197 2.417182 -4.178771
v -0.5968164 2.332071 -4.2448134
v -0.5968164 2.417182 -4.2448134
v -0.52540267 2.3360026 -4.2448134
v -0.52540267 2.4132507 -4.2448134
v -0.9039725 3.4150913 -4.2448134
v -0.9039725 3.4923403 -4.2448134
v -0.83255875 3.496271 -4.2448134
v -0.83255875 3.4111605 -4.2448134
v -0.71695197 3.4111605 -4.178771
v -0.71695197 3.496271 -4.178771
v -0.5968164 3.4111605 -4.2448134
v -0.5968164 3.496271 -4.2448134
v -0.52540267 3.4150913 -4.2448134
v -0.52540267 3.4923403 -4.2448134
v 1.2147043 1.1287764 -4.2725816
v 1.2147043 1.039955 -4.1616116
v -1.2147043 1.039955 -4.1616116
v -1.2147043 1.1287764 -4.2725816
v -1.2147043 1.039955 -4.1616116
v 1.2147043 1.039955 -4.1616116
v 1.2147043 0.8455842 -4.1616116
v -1.2147043 0.8455842 -4.1616116
v -1.2147043 0.8455842 -4.1616116
v 1.2147043 0.8455842 -4.1616116
v 1.2147043 0.8455842 -4.3902555
v -1.2147043 0.8455842 -4.3902555
v -0.17867889 4.5723186 -4.2725816
v -0 1.1287764 -4.2725816
v -0.17867889 1.1287764 -4.2725816
v -0 4.5723186 -4.2725816
v 0.17867889 1.1287764 -4.2725816
v 0.17867889 4.5723186 -4.2725816
v -0.17867889 2.850547 -4.2725816
v -0.17867889 1.9896622 -4.2725816
v -0.7437937 1.9896622 -4.2725816
v -0.7437937 2.850547 -4.2725816
v 0.7437937 4.5723186 -4.2725816
v 0.7437937 3.7114327 -4.2725816
v 0.17867889 3.7114327 -4.2725816
v 0.17867889 4.5723186 -4.2725816
v -0.17867889 1.9896622 -4.2725816
v -0.17867889 1.1287764 -4.2725816
v -0.7437937 1.1287764 -4.2725816
v -0.7437937 1.9896622 -4.2725816
v 0.7437937 2.850547 -4.2725816
v 0.7437937 1.9896622 -4.2725816
v 0.17867889 1.9896622 -4.2725816
v 0.17867889 2.850547 -4.2725816
v 0.7437937 3.7114327 -4.2725816
v 0.7437937 2.850547 -4.2725816
v 0.17867889 2.850547 -4.2725816
v 0.17867889 3.7114327 -4.2725816
v -0.17867889 3.7114327 -4.2725816
v -0.17867889 2.850547 -4.2725816
v -0.7437937 2.850547 -4.2725816
v -0.7437937 3.7114327 -4.2725816
v -0.7437937 4.5723186 -4.2725816
v -0.7437937 3.7114327 -4.2725816
v -1.2147043 3.7114327 -4.2725816
v -1.2147043 4.5723186 -4.2725816
v -0.7437937 2.850547 -4.2725816
v -1.2147043 2.850547 -4.2725816
v -1.2147043 3.7114327 -4.2725816
v -0.7437937 3.7114327 -4.2725816
v -0.7437937 1.9896622 -4.2725816
v -1.2147043 1.9896622 -4.2725816
v -1.2147043 2.850547 -4.2725816
v -0.7437937 2.850547 -4.2725816
v -0.7437937 1.1287764 -4.2725816
v -1.2147043 1.1287764 -4.2725816
v -1.2147043 1.9896622 -4.2725816
v -0.7437937 1.9896622 -4.2725816
v 1.2147043 1.9896622 -4.2725816
v 1.2147043 1.1287764 -4.2725816
v 0.7437937 1.1287764 -4.2725816
v 0.7437937 1.9896622 -4.2725816
v 1.2147043 2.850547 -4.2725816
v 1.2147043 1.9896622 -4.2725816
v 0.7437937 1.9896622 -4.2725816
v 0.7437937 2.850547 -4.2725816
v 1.2147043 3.7114327 -4.2725816
v 1.2147043 2.850547 -4.2725816
v 0.7437937 2.850547 -4.2725816
v 0.7437937 3.7114327 -4.2725816
v 1.2147043 4.5723186 -4.2725816
v 1.2147043 3.7114327 -4.2725816
v 0.7437937 3.7114327 -4.2725816
v 0.7437937 4.5723186 -4.2725816
v 0.5615054 2.3360026 -4.2448134
v 0.5615054 2.4132507 -4.2448134
v 0.63291913 2.417182 -4.2448134
v 0.63291913 2.332071 -4.2448134
v 0.7485259 2.332071 -4.178771
v 0.7485259 2.417182 -4.178771
v 0.86866146 2.332071 -4.2448134
v 0.86866146 2.417182 -4.2448134
v 0.9400752 2.3360026 -4.2448134
v 0.9400752 2.4132507 -4.2448134
v 0.5615054 3.4150913 -4.2448134
v 0.5615054 3.4923403 -4.2448134
v 0.63291913 3.496271 -4.2448134
v 0.63291913 3.4111605 -4.2448134
v 0.7485259 3.4111605 -4.178771
v 0.7485259 3.496271 -4.178771
v 0.86866146 3.4111605 -4.2448134
v 0.86866146 3.496271 -4.2448134
v 0.9400752 3.4150913 -4.2448134
v 0.9400752 3.4923403 -4.2448134
v 0.54794604 1.3767133 -4.2725816
v 0.58534956 0.839832 -4.1618476
v 0.54794604 0.839832 -4.2725816
v 0.6024941 1.3767133 -4.1599693
v 0.74379355 0.839832 -4.0907016
v 0.7437936 1.3767133 -4.1262746
v 0.7822809 0.70024824 -4.2644587
v 0.90223765 0.839832 -4.1618476
v 0.9396413 0.839832 -4.2725816
v 0.90223765 0.839832 -4.3920803
v 0.7675801 0.70024824 -4.309703
v 0.7437936 0.67345196 -4.2769637
v 0.7437936 0.70024824 -4.236496
v 0.74379355 0.839832 -4.0907016
v 0.90223765 0.839832 -4.1618476
v 0.7822809 0.70024824 -4.2644587
v 0.7437936 0.67345196 -4.2769637
v 0.70530623 0.70024824 -4.2644587
v 0.58534956 0.839832 -4.1618476
v 0.74379355 0.839832 -4.0907016
v 0.7437936 0.70024824 -4.236496
v 0.7437936 0.67345196 -4.2769637
v 0.70530623 0.70024824 -4.2644587
v 0.54794604 0.839832 -4.2725816
v 0.58534956 0.839832 -4.1618476
v 0.7200072 0.70024824 -4.309703
v 0.58534956 0.839832 -4.3920803
v 0.7437936 0.67345196 -4.2769637
v 0.8458824 1.8098545 -4.2725816
v 0.9396413 1.3767133 -4.2725816
v 0.88509303 1.3767133 -4.1599693
v 0.7437936 1.8098545 -4.192781
v 0.8458824 3.191086 -4.2725816
v 0.8458824 1.8098545 -4.2725816
v 0.7437936 1.8098545 -4.192781
v 0.7437936 3.191086 -4.192781
v 0.8458824 4.5723176 -4.2725816
v 0.7437936 4.5723176 -4.192781
v 0.7437936 3.191086 -4.192781
v 0.7437936 1.8098545 -4.192781
v 0.6417049 1.8098545 -4.2725816
v 0.6417049 3.191086 -4.2725816
v 0.7437936 4.5723176 -4.192781
v 0.6417049 4.5723176 -4.2725816
v 0.6024941 1.3767133 -4.1599693
v 0.54794604 1.3767133 -4.2725816
v 0.6417049 1.8098545 -4.2725816
v 0.7437936 1.8098545 -4.192781
v 0.7437936 1.3767133 -4.1262746
v 0.90223765 0.839832 -4.1618476
v 0.9396413 1.3767133 -4.2725816
v 0.9396413 0.839832 -4.2725816
v 0.88509303 1.3767133 -4.1599693
v 0.74379355 0.839832 -4.0907016
v 0.7437936 1.3767133 -4.1262746
vt 0.9023071 0.9117438
vt 0.8762173 0.7513588
vt 0.9032041 0.7513588
vt 0.75109357 0.8536801
vt 0.9981647 0.85367996
vt 0.9981648 0.75091314
vt 0.7510935 0.75091314
vt 0.9981648 0.75091314
vt 0.75109345 0.75091314
vt 0.75109345 0.85367984
vt 0.9981647 0.8536797
vt 0.93019086 0.7513588
vt 0.9032041 0.7513588
vt 0.9048894 0.9120931
vt 0.9512525 0.9120931
vt 0.9721829 0.7513588
vt 0.98066646 0.9120931
vt 0.87058735 0.7684083
vt 0.876998 0.7510059
vt 0.8649508 0.7510059
vt 0.8533884 0.7510059
vt 0.8662906 0.7684083
vt 0.8705874 0.77225494
vt 0.87058735 0.7684083
vt 0.87097436 0.75100595
vt 0.8533884 0.7510059
vt 0.86629057 0.7684083
vt 0.87058735 0.77225494
vt 0.8747945 0.7684083
vt 0.88834727 0.75100595
vt 0.87097436 0.75100595
vt 0.87058735 0.7684083
vt 0.87058735 0.77225494
vt 0.8705874 0.7684083
vt 0.87699795 0.7510059
vt 0.8649508 0.7510059
vt 0.87479454 0.7684083
vt 0.88834727 0.7510058
vt 0.8705874 0.77225494
vt 0.869865 0.9117438
vt 0.8341741 0.7513588
vt 0.8762173 0.7513588
vt 0.9023071 0.9117438
vt 0.9032041 0.7513588
vt 0.8150137 0.97148776
vt 0.8150137 0.7507649
vt 0.7967252 0.7507649
vt 0.7967252 0.97148776
vt 0.8150137 0.9915478
vt 0.7967252 0.9915478
vt 0.7967252 0.97148776
vt 0.7967252 0.7507649
vt 0.7783844 0.7507649
vt 0.7783844 0.97148776
vt 0.7967252 0.9915478
vt 0.7783844 0.9915478
vt 0.93019086 0.7513588
vt 0.9721829 0.7513588
vt 0.9347262 0.9117438
vt 0.9023071 0.9117438
vt 0.9032041 0.7513588
vt 0.8585114 0.9120931
vt 0.8341741 0.7513588
vt 0.8272899 0.9120931
vt 0.8762173 0.7513588
vt 0.9048894 0.9120931
vt 0.9032041 0.7513588
vt 0.50160706 0.673994
vt 0.50160706 0.6929758
vt 0.51771677 0.6929758
vt 0.51771677 0.673994
vt 0.5338265 0.673994
vt 0.5338265 0.6929758
vt 0.5499362 0.673994
vt 0.5499362 0.6929758
vt 0.56604594 0.673994
vt 0.56604594 0.6929758
vt 0.50160706 0.673994
vt 0.50160706 0.6929758
vt 0.51771677 0.6929758
vt 0.51771677 0.673994
vt 0.5338265 0.673994
vt 0.5338265 0.6929758
vt 0.5499362 0.673994
vt 0.5499362 0.6929758
vt 0.56604594 0.673994
vt 0.56604594 0.6929758
vt 0.94995856 0.9451785
vt 0.94995856 0.999264
vt 0.80168843 0.999264
vt 0.80168843 0.9451785
vt 0.80168843 0.999264
vt 0.94995856 0.999264
vt 0.94995856 0.9451785
vt 0.80168843 0.9451785
vt 0.0006226897 0.6160846
vt 0.24296254 0.6160846
vt 0.24296254 0.7595693
vt 0.0006226897 0.7595694
vt 0.75863117 0.999087
vt 0.79419124 0.75075686
vt 0.75863117 0.75075686
vt 0.79419124 0.999087
vt 0.8672844 0.75075686
vt 0.8672844 0.999087
vt 0.9981648 0.75091314
vt 0.7510935 0.75091314
vt 0.75109357 0.85367984
vt 0.9981647 0.8536797
vt 0.9981647 0.85367996
vt 0.75109345 0.8536801
vt 0.75109345 0.75091314
vt 0.9981648 0.75091314
vt 0.7510935 0.75091314
vt 0.9981648 0.75091314
vt 0.9981647 0.8536797
vt 0.75109357 0.85367984
vt 0.9981647 0.85367996
vt 0.75109357 0.8536801
vt 0.7510935 0.75091314
vt 0.9981648 0.75091314
vt 0.75109345 0.8536801
vt 0.9981647 0.85367996
vt 0.9981648 0.75091314
vt 0.75109345 0.75091314
vt 0.75109345 0.75091314
vt 0.9981648 0.75091314
vt 0.9981647 0.8536797
vt 0.75109345 0.85367984
vt 0.9981647 0.8536797
vt 0.75109345 0.85367984
vt 0.75109357 0.75091314
vt 0.9981648 0.75091314
vt 0.9981647 0.8536797
vt 0.9981648 0.75091314
vt 0.75109357 0.75091314
vt 0.75109345 0.85367984
vt 0.75109357 0.85367984
vt 0.7510936 0.75091314
vt 0.9981648 0.75091314
vt 0.9981647 0.8536797
vt 0.9981647 0.8536797
vt 0.9981648 0.75091314
vt 0.7510936 0.75091314
vt 0.75109357 0.85367984
vt 0.7510936 0.75091314
vt 0.9981648 0.75091314
vt 0.9981647 0.85367996
vt 0.75109357 0.8536801
vt 0.9981648 0.75091314
vt 0.7510936 0.75091314
vt 0.75109357 0.8536801
vt 0.9981647 0.85367996
vt 0.75109357 0.75091314
vt 0.9981648 0.75091314
vt 0.9981647 0.85367996
vt 0.75109345 0.8536801
vt 0.9981648 0.75091314
vt 0.75109357 0.75091314
vt 0.75109345 0.8536801
vt 0.9981647 0.85367996
vt 0.50160706 0.673994
vt 0.50160706 0.6929758
vt 0.51771677 0.6929758
vt 0.51771677 0.673994
vt 0.5338265 0.673994
vt 0.5338265 0.6929758
vt 0.5499362 0.673994
vt 0.5499362 0.6929758
vt 0.56604594 0.673994
vt 0.56604594 0.6929758
vt 0.50160706 0.673994
vt 0.50160706 0.6929758
vt 0.51771677 0.6929758
vt 0.51771677 0.673994
vt 0.5338265 0.673994
vt 0.5338265 0.6929758
vt 0.5499362 0.673994
vt 0.5499362 0.6929758
vt 0.56604594 0.673994
vt 0.56604594 0.6929758
vt 0.9721829 0.7513588
vt 0.9512525 0.9120931
vt 0.98066646 0.9120931
vt 0.93019086 0.7513588
vt 0.9048894 0.9120931
vt 0.9032041 0.7513588
vt 0.87058735 0.7684083
vt 0.876998 0.7510059
vt 0.8649508 0.7510059
vt 0.8533884 0.7510059
vt 0.8662906 0.7684083
vt 0.8705874 0.77225494
vt 0.87058735 0.7684083
vt 0.87097436 0.75100595
vt 0.8533884 0.7510059
vt 0.86629057 0.7684083
vt 0.87058735 0.77225494
vt 0.8747945 0.7684083
vt 0.88834727 0.75100595
vt 0.87097436 0.75100595
vt 0.87058735 0.7684083
vt 0.87058735 0.77225494
vt 0.8705874 0.7684083
vt 0.87699795 0.7510059
vt 0.8649508 0.7510059
vt 0.87479454 0.7684083
vt 0.88834727 0.7510058
vt 0.8705874 0.77225494
vt 0.869865 0.9117438
vt 0.8341741 0.7513588
vt 0.8762173 0.7513588
vt 0.9023071 0.9117438
vt 0.8150137 0.97148776
vt 0.8150137 0.7507649
vt 0.7967252 0.7507649
vt 0.7967252 0.97148776
vt 0.8150137 0.9915478
vt 0.7967252 0.9915478
vt 0.7967252 0.97148776
vt 0.7967252 0.7507649
vt 0.7783844 0.7507649
vt 0.7783844 0.97148776
vt 0.7967252 0.9915478
vt 0.7783844 0.9915478
vt 0.93019086 0.7513588
vt 0.9721829 0.7513588
vt 0.9347262 0.9117438
vt 0.9023071 0.9117438
vt 0.9032041 0.7513588
vt 0.8585114 0.9120931
vt 0.8341741 0.7513588
vt 0.8272899 0.9120931
vt 0.8762173 0.7513588
vt 0.9048894 0.9120931
vt 0.9032041 0.7513588
vn -1.1715014E-07 0.1571903 0.9875683
vn 0.5833492 0.124320775 0.80265063
vn -0 0.10905179 0.9940361
vn -0 0 1
vn -0 0 1
vn -0 0 1
vn -0 0 1
vn -0 0 1
vn -0 0 1
vn -0 0 1
vn -0 0 1
vn -0.6788939 0.1223926 0.72396344
vn -0 0.12843873 0.9917175
vn -0 -0.3896428 0.920966
vn -0.73609555 -0.3188684 0.5970647
vn -0.9150322 0.073198296 0.39668384
vn -0.8312145 -0.5417181 0.124995954
vn 0.55957645 -0.80189043 0.20939407
vn 0.7360952 -0.31886822 0.59706527
vn 0.8312143 -0.54171824 0.12499629
vn 0.64292794 -0.7384411 -0.2033433
vn 0.62288177 -0.75642264 -0.19960757
vn 6.225485E-07 -0.9797008 0.200465
vn 4.7006336E-07 -0.7895281 0.61371446
vn -0 -0.3896428 0.920966
vn 0.7360952 -0.31886822 0.59706527
vn 0.55957645 -0.80189043 0.20939407
vn 6.225485E-07 -0.9797008 0.200465
vn -0.5595761 -0.8018907 0.20939416
vn -0.73609555 -0.3188684 0.5970647
vn -0 -0.3896428 0.920966
vn 4.7006336E-07 -0.7895281 0.61371446
vn 6.225485E-07 -0.9797008 0.200465
vn -0.5595761 -0.8018907 0.20939416
vn -0.8312145 -0.5417181 0.124995954
vn -0.73609555 -0.3188684 0.5970647
vn -0.62288177 -0.7564227 -0.19960722
vn -0.64292824 -0.73844093 -0.20334269
vn 6.225485E-07 -0.9797008 0.200465
vn 0.66651094 0.13708192 0.7327835
vn 0.9150319 0.073198184 0.39668447
vn 0.6788936 0.12239246 0.7239637
vn -0 0.119847625 0.99279237
vn -0 0.12843873 0.9917175
vn 0.61585283 0 0.7878613
vn 0.66651094 0.13708192 0.7327835
vn -0 0.119847625 0.99279237
vn -2.0804778E-07 0 1
vn 0.61585355 0 0.7878607
vn -2.2696142E-07 0 1
vn -2.0804778E-07 0 1
vn -0 0.119847625 0.99279237
vn -0.6665112 0.13708209 0.7327833
vn -0.61585313 0 0.787861
vn -2.2696142E-07 0 1
vn -0.6158538 0 0.78786045
vn -0.6788939 0.1223926 0.72396344
vn -0.9150322 0.073198296 0.39668384
vn -0.6665112 0.13708209 0.7327833
vn -0 0.119847625 0.99279237
vn -0 0.12843873 0.9917175
vn 0.7360952 -0.31886822 0.59706527
vn 0.9150319 0.073198184 0.39668447
vn 0.8312143 -0.54171824 0.12499629
vn 0.6788936 0.12239246 0.7239637
vn -0 -0.3896428 0.920966
vn -0 0.12843873 0.9917175
vn -0 0 1
vn -0 0 1
vn -0.2566103 0 0.9665149
vn -0.2566103 0 0.9665149
vn -0.00819346 0 0.9999665
vn -0.00819346 0 0.9999665
vn 0.24868284 0 0.96858495
vn 0.24868284 0 0.96858495
vn 5.264078E-07 0 1
vn 5.264078E-07 0 1
vn -0 0 1
vn -0 0 1
vn -0.25661045 0 0.9665149
vn -0.25661045 0 0.9665149
vn -0.008193003 0 0.9999665
vn -0.008193003 0 0.9999665
vn 0.2486832 0 0.96858495
vn 0.2486832 0 0.96858495
vn -0 0 1
vn -0 0 1
vn -0 0.7807127 0.6248902
vn -0 0.7807127 0.6248902
vn -0 0.7807127 0.6248902
vn -0 0.7807127 0.6248902
vn -0 0 1
vn -0 0 1
vn -0 0 1
vn -0 0 1
vn -0 -1 0
vn -0 -1 0
vn -0 -1 0
vn -0 -1 0
vn -0 0 1
vn -0 0 1
vn -0 0 1
vn -0 0 1
vn -0 0 1
vn -0 0 1
vn -0 0 1
vn -0 0 1
vn -0 0 1
vn -0 0 1
vn -0 0 1
vn -0 0 1
vn -0 0 1
vn -0 0 1
vn -0 0 1
vn -0 0 1
vn -0 0 1
vn -0 0 1
vn -0 0 1
vn -0 0 1
vn -0 0 1
vn -0 0 1
vn -0 0 1
vn -0 0 1
vn -0 0 1
vn -0 0 1
vn -0 0 1
vn -0 0 1
vn -0 0 1
vn -0 0 1
vn -0 0 1
vn -0 0 1
vn -0 0 1
vn -0 0 1
vn -0 0 1
vn -0 0 1
vn -0 0 1
vn -0 0 1
vn -0 0 1
vn -0 0 1
vn -0 0 1
vn -0 0 1
vn -0 0 1
vn -0 0 1
vn -0 0 1
vn -0 0 1
vn -0 0 1
vn -0 0 1
vn -0 0 1
vn -0 0 1
vn -0 0 1
vn -0 0 1
vn -0 0 1
vn -0 0 1
vn -0 0 1
vn -0 0 1
vn -0 0 1
vn -0 0 1
vn -0 0 1
vn -0 0 1
vn -0 0 1
vn -0 0 1
vn -0 0 1
vn -0 0 1
vn -0.25661033 0 0.9665149
vn -0.25661033 0 0.9665149
vn -0.00819346 0 0.9999665
vn -0.00819346 0 0.9999665
vn 0.24868284 0 0.96858495
vn 0.24868284 0 0.96858495
vn 5.264078E-07 0 1
vn 5.264078E-07 0 1
vn -0 0 1
vn -0 0 1
vn -0.25660995 0 0.966515
vn -0.25660995 0 0.966515
vn -0.00819247 0 0.9999665
vn -0.00819247 0 0.9999665
vn 0.2486832 0 0.96858495
vn 0.2486832 0 0.96858495
vn -0 0 1
vn -0 0 1
vn -0.9150324 0.07319817 0.39668334
vn -0.7462235 -0.32105562 0.5831585
vn -0.83121455 -0.54171795 0.124996126
vn -0.5833496 0.12432091 0.80265033
vn -0 -0.2421834 0.9702305
vn -0 0.10905179 0.9940361
vn 0.5595762 -0.8018906 0.20939419
vn 0.7462231 -0.32105568 0.5831589
vn 0.8312145 -0.5417181 0.12499629
vn 0.6429281 -0.7384408 -0.20334338
vn 0.6228812 -0.7564232 -0.19960742
vn 6.980084E-07 -0.9797009 0.20046467
vn 7.0907856E-07 -0.78952837 0.613714
vn -0 -0.2421834 0.9702305
vn 0.7462231 -0.32105568 0.5831589
vn 0.5595762 -0.8018906 0.20939419
vn 6.980084E-07 -0.9797009 0.20046467
vn -0.55957574 -0.80189097 0.20939408
vn -0.7462235 -0.32105562 0.5831585
vn -0 -0.2421834 0.9702305
vn 7.0907856E-07 -0.78952837 0.613714
vn 6.980084E-07 -0.9797009 0.20046467
vn -0.55957574 -0.80189097 0.20939408
vn -0.83121455 -0.54171795 0.124996126
vn -0.7462235 -0.32105562 0.5831585
vn -0.6228813 -0.756423 -0.19960725
vn -0.6429282 -0.7384409 -0.20334303
vn 6.980084E-07 -0.9797009 0.20046467
vn 0.7186616 0.15208359 0.6785249
vn 0.9150321 0.07319823 0.3966842
vn 0.5833492 0.124320775 0.80265063
vn -1.1715014E-07 0.1571903 0.9875683
vn 0.61585283 0 0.7878613
vn 0.7186616 0.15208359 0.6785249
vn -1.1715014E-07 0.1571903 0.9875683
vn -2.0804778E-07 0 1
vn 0.61585355 0 0.7878607
vn -2.2696142E-07 0 1
vn -2.0804778E-07 0 1
vn -1.1715014E-07 0.1571903 0.9875683
vn -0.718662 0.15208371 0.6785245
vn -0.61585313 0 0.787861
vn -2.2696142E-07 0 1
vn -0.6158538 0 0.78786045
vn -0.5833496 0.12432091 0.80265033
vn -0.9150324 0.07319817 0.39668334
vn -0.718662 0.15208371 0.6785245
vn -1.1715014E-07 0.1571903 0.9875683
vn -0 0.10905179 0.9940361
vn 0.7462231 -0.32105568 0.5831589
vn 0.9150321 0.07319823 0.3966842
vn 0.8312145 -0.5417181 0.12499629
vn 0.5833492 0.124320775 0.80265063
vn -0 -0.2421834 0.9702305
vn -0 0.10905179 0.9940361
g MSH_Elevator_DoorUp_0
f 3/3/3 2/2/2 1/1/1
f 6/6/6 5/5/5 4/4/4
f 7/7/7 6/6/6 4/4/4
f 10/10/10 9/9/9 8/8/8
f 11/11/11 10/10/10 8/8/8
f 14/14/14 13/13/13 12/12/12
f 15/15/15 14/14/14 12/12/12
f 15/15/15 12/12/12 16/16/16
f 17/17/17 15/15/15 16/16/16
f 20/20/20 19/19/19 18/18/18
f 21/21/21 20/20/20 18/18/18
f 22/22/22 21/21/21 18/18/18
f 18/18/18 23/23/23 22/22/22
f 26/26/26 25/25/25 24/24/24
f 27/27/27 26/26/26 24/24/24
f 24/24/24 28/28/28 27/27/27
f 31/31/31 30/30/30 29/29/29
f 32/32/32 31/31/31 29/29/29
f 29/29/29 33/33/33 32/32/32
f 36/36/36 35/35/35 34/34/34
f 34/34/34 35/35/35 37/37/37
f 35/35/35 38/38/38 37/37/37
f 37/37/37 39/39/39 34/34/34
f 42/42/42 41/41/41 40/40/40
f 42/42/42 40/40/40 43/43/43
f 44/44/44 42/42/42 43/43/43
f 47/47/47 46/46/46 45/45/45
f 48/48/48 47/47/47 45/45/45
f 48/48/48 45/45/45 49/49/49
f 50/50/50 48/48/48 49/49/49
f 53/53/53 52/52/52 51/51/51
f 54/54/54 53/53/53 51/51/51
f 54/54/54 51/51/51 55/55/55
f 56/56/56 54/54/54 55/55/55
f 59/59/59 58/58/58 57/57/57
f 60/60/60 59/59/59 57/57/57
f 61/61/61 60/60/60 57/57/57
f 64/64/64 63/63/63 62/62/62
f 63/63/63 65/65/65 62/62/62
f 62/62/62 65/65/65 66/66/66
f 65/65/65 67/67/67 66/66/66
f 70/70/70 69/69/69 68/68/68
f 71/71/71 70/70/70 68/68/68
f 71/71/71 72/72/72 70/70/70
f 72/72/72 73/73/73 70/70/70
f 72/72/72 74/74/74 73/73/73
f 74/74/74 75/75/75 73/73/73
f 74/74/74 76/76/76 75/75/75
f 76/76/76 77/77/77 75/75/75
f 80/80/80 79/79/79 78/78/78
f 81/81/81 80/80/80 78/78/78
f 81/81/81 82/82/82 80/80/80
f 82/82/82 83/83/83 80/80/80
f 82/82/82 84/84/84 83/83/83
f 84/84/84 85/85/85 83/83/83
f 84/84/84 86/86/86 85/85/85
f 86/86/86 87/87/87 85/85/85
f 90/90/90 89/89/89 88/88/88
f 91/91/91 90/90/90 88/88/88
f 94/94/94 93/93/93 92/92/92
f 95/95/95 94/94/94 92/92/92
f 98/98/98 97/97/97 96/96/96
f 99/99/99 98/98/98 96/96/96
f 102/102/102 101/101/101 100/100/100
f 101/101/101 103/103/103 100/100/100
f 101/101/101 104/104/104 103/103/103
f 104/104/104 105/105/105 103/103/103
f 108/108/108 107/107/107 106/106/106
f 109/109/109 108/108/108 106/106/106
f 112/112/112 111/111/111 110/110/110
f 113/113/113 112/112/112 110/110/110
f 116/116/116 115/115/115 114/114/114
f 117/117/117 116/116/116 114/114/114
f 120/120/120 119/119/119 118/118/118
f 121/121/121 120/120/120 118/118/118
f 124/124/124 123/123/123 122/122/122
f 125/125/125 124/124/124 122/122/122
f 128/128/128 127/127/127 126/126/126
f 129/129/129 128/128/128 126/126/126
f 132/132/132 131/131/131 130/130/130
f 133/133/133 132/132/132 130/130/130
f 136/136/136 135/135/135 134/134/134
f 137/137/137 136/136/136 134/134/134
f 140/140/140 139/139/139 138/138/138
f 141/141/141 140/140/140 138/138/138
f 144/144/144 143/143/143 142/142/142
f 145/145/145 144/144/144 142/142/142
f 148/148/148 147/147/147 146/146/146
f 149/149/149 148/148/148 146/146/146
f 152/152/152 151/151/151 150/150/150
f 153/153/153 152/152/152 150/150/150
f 156/156/156 155/155/155 154/154/154
f 157/157/157 156/156/156 154/154/154
f 160/160/160 159/159/159 158/158/158
f 161/161/161 160/160/160 158/158/158
f 164/164/164 163/163/163 162/162/162
f 165/165/165 164/164/164 162/162/162
f 165/165/165 166/166/166 164/164/164
f 166/166/166 167/167/167 164/164/164
f 166/166/166 168/168/168 167/167/167
f 168/168/168 169/169/169 167/167/167
f 168/168/168 170/170/170 169/169/169
f 170/170/170 171/171/171 169/169/169
f 174/174/174 173/173/173 172/172/172
f 175/175/175 174/174/174 172/172/172
f 175/175/175 176/176/176 174/174/174
f 176/176/176 177/177/177 174/174/174
f 176/176/176 178/178/178 177/177/177
f 178/178/178 179/179/179 177/177/177
f 178/178/178 180/180/180 179/179/179
f 180/180/180 181/181/181 179/179/179
f 184/184/184 183/183/183 182/182/182
f 183/183/183 185/185/185 182/182/182
f 183/183/183 186/186/186 185/185/185
f 186/186/186 187/187/187 185/185/185
f 190/190/190 189/189/189 188/188/188
f 191/191/191 190/190/190 188/188/188
f 192/192/192 191/191/191 188/188/188
f 188/188/188 193/193/193 192/192/192
f 196/196/196 195/195/195 194/194/194
f 197/197/197 196/196/196 194/194/194
f 194/194/194 198/198/198 197/197/197
f 201/201/201 200/200/200 199/199/199
f 202/202/202 201/201/201 199/199/199
f 199/199/199 203/203/203 202/202/202
f 206/206/206 205/205/205 204/204/204
f 204/204/204 205/205/205 207/207/207
f 205/205/205 208/208/208 207/207/207
f 207/207/207 209/209/209 204/204/204
f 212/212/212 211/211/211 210/210/210
f 212/212/212 210/210/210 213/213/213
f 216/216/216 215/215/215 214/214/214
f 217/217/217 216/216/216 214/214/214
f 217/217/217 214/214/214 218/218/218
f 219/219/219 217/217/217 218/218/218
f 222/222/222 221/221/221 220/220/220
f 223/223/223 222/222/222 220/220/220
f 223/223/223 220/220/220 224/224/224
f 225/225/225 223/223/223 224/224/224
f 228/228/228 227/227/227 226/226/226
f 229/229/229 228/228/228 226/226/226
f 230/230/230 229/229/229 226/226/226
f 233/233/233 232/232/232 231/231/231
f 232/232/232 234/234/234 231/231/231
f 235/235/235 231/231/231 234/234/234
f 236/236/236 235/235/235 234/234/234
